<?xml version="1.0" encoding="UTF-8" standalone="no"?>
<!DOCTYPE svg PUBLIC "-//W3C//DTD SVG 1.1//EN"
"http://www.w3.org/Graphics/SVG/1.1/DTD/svg11.dtd">
<svg viewBox="0 0 935 1210" version="1.1" xmlns="http://www.w3.org/2000/svg" xmlns:xlink="http://www.w3.org/1999/xlink">
<defs>
<clipPath id="c0_5"><path d="M0,1210L0,0L935,0l0,1210Z" /></clipPath>
<style type="text/css"><![CDATA[
.g1_5{
fill: #D1DDDF;
}
.g2_5{
fill: #FFFFFF;
}
.g3_5{
fill: #FEF5C3;
}
.g4_5{
fill: none;
stroke: #003F63;
stroke-width: 0.7638889;
stroke-linecap: butt;
stroke-linejoin: miter;
stroke-miterlimit: 4;
}
.g5_5{
fill: #6186A4;
}
]]></style>
</defs>
<g clip-path="url(#c0_5)">
<path d="M-18.2,1228.3l953.2,0L935,-18.2l-953.2,0l0,1246.5Z" class="g1_5" />
</g>
<path d="M82.5,1129.3l770,0l0,-1017.5l-770,0l0,1017.5Z" class="g2_5" />
<path d="M464.8,645.4l351.1,0l0,-403.3l-351.1,0l0,403.3Z" class="g3_5" />
<image preserveAspectRatio="none" x="465" y="242" width="351" height="403" xlink:href="img/1.png" />
<path d="M464.8,645.4l351.1,0l0,-403.3l-351.1,0l0,403.3Z" class="g4_5" />
<path d="M103.2,155.3L73.5,131.5l-0.2,0l0,47.4Z" class="g5_5" />
</svg>