<?xml version="1.0" encoding="UTF-8" standalone="no"?>
<!DOCTYPE svg PUBLIC "-//W3C//DTD SVG 1.1//EN"
"http://www.w3.org/Graphics/SVG/1.1/DTD/svg11.dtd">
<svg viewBox="0 0 935 1210" version="1.1" xmlns="http://www.w3.org/2000/svg" xmlns:xlink="http://www.w3.org/1999/xlink">
<defs>
<clipPath id="c0_15"><path d="M0,1210L0,0L935,0l0,1210Z" /></clipPath>
<clipPath id="c1_15"><path d="M201.8,719l-6.4,-11.1l23.2,-13.4l6.4,11.1L201.8,719Z" /></clipPath>
<clipPath id="c2_15"><path d="M268.7,695.7l-6.4,-11.1l23.2,-13.4l6.5,11.1l-23.3,13.4Z" /></clipPath>
<clipPath id="c3_15"><path d="M219.2,732.5L195.7,718.9L202,708l23.5,13.5l-6.3,11Z" /></clipPath>
<clipPath id="c4_15"><path d="M286.1,753.7L262.6,740.1l6.3,-10.9l23.5,13.6l-6.3,10.9Z" /></clipPath>
<clipPath id="c5_15"><path d="M180.9,906.1L174.5,895l23.2,-13.5l6.4,11.1l-23.2,13.5Z" /></clipPath>
<clipPath id="c6_15"><path d="M198.3,921L174.8,907.5l6.3,-11l23.5,13.6L198.3,921Z" /></clipPath>
<clipPath id="c7_15"><path d="M238.6,882.2l-6.4,-11.1l23.3,-13.4l6.4,11.1l-23.3,13.4Z" /></clipPath>
<clipPath id="c8_15"><path d="M254.5,944.8L231,931.2l6.3,-10.9l23.5,13.6l-6.3,10.9Z" /></clipPath>
<clipPath id="c9_15"><path d="M300.7,858.7l-6.4,-11.1l23.2,-13.4l6.4,11.1l-23.2,13.4Z" /></clipPath>
<clipPath id="c10_15"><path d="M319.6,968.6L296.1,955.1l6.3,-11l23.5,13.6l-6.3,10.9Z" /></clipPath>
<clipPath id="c11_15"><path d="M353.8,834.6l-6.4,-11.1L370.7,810l6.4,11.1l-23.3,13.5Z" /></clipPath>
<clipPath id="c12_15"><path d="M371.2,993.4L347.7,979.8l6.4,-10.9l23.4,13.5l-6.3,11Z" /></clipPath>
<style type="text/css"><![CDATA[
.g1_15{
fill: #D1DDDF;
}
.g2_15{
fill: #FFFFFF;
}
.g3_15{
fill: #003F63;
}
.g4_15{
fill: none;
stroke: #003F63;
stroke-width: 1.5277778;
stroke-linecap: butt;
stroke-linejoin: miter;
stroke-miterlimit: 3;
}
.g5_15{
fill: none;
stroke: #003F63;
stroke-width: 0.7638889;
stroke-linecap: butt;
stroke-linejoin: miter;
stroke-miterlimit: 3;
}
.g6_15{
fill: none;
stroke: #003F63;
stroke-width: 0.34375;
stroke-linecap: butt;
stroke-linejoin: miter;
stroke-miterlimit: 3;
}
]]></style>
</defs>
<g clip-path="url(#c0_15)">
<path d="M-18.2,1228.3l953.2,0L935,-18.2l-953.2,0l0,1246.5Z" class="g1_15" />
</g>
<path d="M82.5,1129.3l770,0l0,-1017.5l-770,0l0,1017.5Z" class="g2_15" />
<path d="M522.7,271l0,6.8l10.1,-10.1L522.7,257.5l0,6.4l-46.1,0l0,7.1Z" class="g3_15" />
<path d="M522.7,271l0,6.8l10.1,-10.1L522.7,257.5l0,6.4l-46.1,0l0,7.1l46.1,0Z" class="g4_15" />
<path d="M522,299.5l1.5,6.6l7.4,-12.3l-12.3,-7.4l1.5,6.1l-44.7,11.2l-0.3,7.4Z" class="g3_15" />
<path d="M522,299.5l1.5,6.6l7.4,-12.3l-12.3,-7.4l1.5,6.1l-44.7,11.2l-0.3,7.4L522,299.5Z" class="g5_15" />
<path d="M520.2,344.9l-1.5,6.5L531,344.1l-7.3,-12.3l-1.6,6.1l-47,-11.7l0.4,7.5Z" class="g3_15" />
<path d="M520.2,344.9l-1.5,6.5L531,344.1l-7.3,-12.3l-1.6,6.1l-47,-11.7l0.4,7.5l44.7,11.2Z" class="g5_15" />
<path d="M475.1,373.8l3.6,3.6l11.2,-11.2c6.5,-6.6,17.4,-6.5,23.9,0.1L525,377.5l-3.7,3.7l11.8,-0.1l0,-11.6l-4.4,4.3L517.5,362.6c-8.7,-8.6,-22.7,-8.5,-31.2,0Z" class="g3_15" />
<path d="M475.1,373.8l3.6,3.6l11.2,-11.2c6.5,-6.6,17.4,-6.5,23.9,0.1L525,377.5l-3.7,3.7l11.8,-0.1l0,-11.6l-4.4,4.3L517.5,362.6c-8.7,-8.6,-22.7,-8.5,-31.2,0l-11.2,11.2Z" class="g5_15" />
<path d="M475.1,404.6l3.6,-3.6l11.2,11.2c6.5,6.6,17.4,6.5,23.9,-0.1L525,400.9l-3.7,-3.7l11.8,0.1l0,11.6l-4.4,-4.3l-11.2,11.2c-8.7,8.6,-22.7,8.5,-31.2,0Z" class="g3_15" />
<path d="M475.1,404.6l3.6,-3.6l11.2,11.2c6.5,6.6,17.4,6.5,23.9,-0.1L525,400.9l-3.7,-3.7l11.8,0.1l0,11.6l-4.4,-4.3l-11.2,11.2c-8.7,8.6,-22.7,8.5,-31.2,0L475.1,404.6Z" class="g5_15" />
<path d="M255.3,471.5l0,6.8l10.2,-10.1L255.3,458l0,6.4l-46.1,0l0,7Z" class="g3_15" />
<path d="M255.3,471.5l0,6.8l10.2,-10.1L255.3,458l0,6.4l-46.1,0l0,7l46.1,0.1Z" class="g4_15" />
<path d="M512,471.5l0,6.8l10.1,-10.1L512,458l0,6.4l-46.1,0l0,7Z" class="g3_15" />
<path d="M512,471.5l0,6.8l10.1,-10.1L512,458l0,6.4l-46.1,0l0,7l46.1,0.1Z" class="g4_15" />
<path d="M207.7,499.5l4.8,-4.7c10.6,10.6,28.2,10.6,38.9,0L247,490.4l14.4,0l0,14.4l-5.3,-5.3c-13.3,13.4,-35.2,13.2,-48.4,0Z" class="g3_15" />
<path d="M207.7,499.5l4.8,-4.7c10.6,10.6,28.2,10.6,38.9,0L247,490.4l14.4,0l0,14.4l-5.3,-5.3c-13.3,13.4,-35.2,13.2,-48.4,0Z" class="g5_15" />
<path d="M464.4,499.5l4.8,-4.7c10.6,10.6,28.2,10.6,38.8,0l-4.4,-4.4l14.4,0l0,14.4l-5.2,-5.3c-13.3,13.4,-35.2,13.2,-48.4,0Z" class="g3_15" />
<path d="M464.4,499.5l4.8,-4.7c10.6,10.6,28.2,10.6,38.8,0l-4.4,-4.4l14.4,0l0,14.4l-5.2,-5.3c-13.3,13.4,-35.2,13.2,-48.4,0Z" class="g5_15" />
<path d="M208,535.6l5.1,4.4c9.7,-11.5,27.2,-13.1,38.8,-3.4l-4.1,4.8l14.4,-1.3L261,525.8l-4.8,5.7C241.8,519.3,220,521.3,208,535.6Z" class="g3_15" />
<path d="M208,535.6l5.1,4.4c9.7,-11.5,27.2,-13.1,38.8,-3.4l-4.1,4.8l14.4,-1.3L261,525.8l-4.8,5.7C241.8,519.3,220,521.3,208,535.6Z" class="g5_15" />
<path d="M464.6,535.6l5.2,4.4c9.7,-11.5,27.2,-13.1,38.7,-3.4l-4,4.8l14.4,-1.3l-1.3,-14.3l-4.7,5.7c-14.5,-12.2,-36.3,-10.2,-48.3,4.1Z" class="g3_15" />
<path d="M464.6,535.6l5.2,4.4c9.7,-11.5,27.2,-13.1,38.7,-3.4l-4,4.8l14.4,-1.3l-1.3,-14.3l-4.7,5.7c-14.5,-12.2,-36.3,-10.2,-48.3,4.1Z" class="g5_15" />
<path d="M244.6,567.9l0,6.8l10.2,-10.1L244.6,554.4l0,6.4l-46.1,0l0,7.1Z" class="g3_15" />
<path d="M244.6,567.9l0,6.8l10.2,-10.1L244.6,554.4l0,6.4l-46.1,0l0,7.1l46.1,0Z" class="g4_15" />
<path d="M470.7,567.9l0,6.8l10.2,-10.1L470.7,554.4l0,6.4l-46.1,0l0,7.1Z" class="g3_15" />
<path d="M470.7,567.9l0,6.8l10.2,-10.1L470.7,554.4l0,6.4l-46.1,0l0,7.1l46.1,0Z" class="g4_15" />
<path d="M197,594.4l4.8,-4.8c10.6,10.7,28.2,10.7,38.9,0l-4.4,-4.4l14.4,0l0,14.5l-5.3,-5.3c-13.3,13.3,-35.2,13.2,-48.4,0Z" class="g3_15" />
<path d="M197,594.4l4.8,-4.8c10.6,10.7,28.2,10.7,38.9,0l-4.4,-4.4l14.4,0l0,14.5l-5.3,-5.3c-13.3,13.3,-35.2,13.2,-48.4,0Z" class="g5_15" />
<path d="M423.1,594.4l4.8,-4.8c10.6,10.7,28.2,10.7,38.9,0l-4.4,-4.4l14.4,0l0,14.5l-5.3,-5.3c-13.3,13.3,-35.2,13.2,-48.4,0Z" class="g3_15" />
<path d="M423.1,594.4l4.8,-4.8c10.6,10.7,28.2,10.7,38.9,0l-4.4,-4.4l14.4,0l0,14.5l-5.3,-5.3c-13.3,13.3,-35.2,13.2,-48.4,0Z" class="g5_15" />
<path d="M197.3,629l5.1,4.3c9.7,-11.5,27.2,-13,38.8,-3.3l-4,4.7l14.3,-1.2l-1.2,-14.4l-4.8,5.7C231.1,612.7,209.3,614.7,197.3,629Z" class="g3_15" />
<path d="M197.3,629l5.1,4.3c9.7,-11.5,27.2,-13,38.8,-3.3l-4,4.7l14.3,-1.2l-1.2,-14.4l-4.8,5.7C231.1,612.7,209.3,614.7,197.3,629Z" class="g5_15" />
<path d="M423.4,629l5.1,4.3c9.7,-11.5,27.3,-13,38.8,-3.3l-4,4.7l14.3,-1.2l-1.2,-14.4l-4.8,5.7C457.2,612.7,435.4,614.7,423.4,629Z" class="g3_15" />
<path d="M423.4,629l5.1,4.3c9.7,-11.5,27.3,-13,38.8,-3.3l-4,4.7l14.3,-1.2l-1.2,-14.4l-4.8,5.7C457.2,612.7,435.4,614.7,423.4,629Z" class="g5_15" />
<g clip-path="url(#c1_15)">
<path d="M199.3,712l0.8,-3c6.5,1.8,13.4,-2.2,15.1,-8.7l-2.7,-0.7l5.6,-3.3l3.3,5.6l-3.3,-0.8c-2.2,8.2,-10.7,13,-18.8,10.9Z" class="g3_15" />
<path d="M199.3,712l0.8,-3c6.5,1.8,13.4,-2.2,15.1,-8.7l-2.7,-0.7l5.6,-3.3l3.3,5.6l-3.3,-0.8c-2.2,8.2,-10.7,13,-18.8,10.9Z" class="g6_15" />
</g>
<g clip-path="url(#c2_15)">
<path d="M266.2,688.7l0.8,-3c6.5,1.8,13.4,-2.2,15.1,-8.7l-2.7,-0.7l5.7,-3.3l3.2,5.7l-3.2,-0.9c-2.2,8.2,-10.8,13.1,-18.9,10.9Z" class="g3_15" />
<path d="M266.2,688.7l0.8,-3c6.5,1.8,13.4,-2.2,15.1,-8.7l-2.7,-0.7l5.7,-3.3l3.2,5.7l-3.2,-0.9c-2.2,8.2,-10.8,13.1,-18.9,10.9Z" class="g6_15" />
</g>
<g clip-path="url(#c3_15)">
<path d="M198.8,716.2l1.1,2.8c6.3,-2.3,13.5,1.1,15.8,7.4l-2.6,1l5.9,2.7l2.7,-5.8l-3.1,1.1c-2.9,-8,-11.9,-12.1,-19.8,-9.2Z" class="g3_15" />
<path d="M198.8,716.2l1.1,2.8c6.3,-2.3,13.5,1.1,15.8,7.4l-2.6,1l5.9,2.7l2.7,-5.8l-3.1,1.1c-2.9,-8,-11.9,-12.1,-19.8,-9.2Z" class="g6_15" />
</g>
<g clip-path="url(#c4_15)">
<path d="M265.8,737.4l1,2.9c6.4,-2.4,13.5,1,15.8,7.4l-2.6,0.9l5.9,2.8l2.7,-5.9l-3.1,1.1c-2.9,-7.9,-11.8,-12.1,-19.7,-9.2Z" class="g3_15" />
<path d="M265.8,737.4l1,2.9c6.4,-2.4,13.5,1,15.8,7.4l-2.6,0.9l5.9,2.8l2.7,-5.9l-3.1,1.1c-2.9,-7.9,-11.8,-12.1,-19.7,-9.2Z" class="g6_15" />
</g>
<g clip-path="url(#c5_15)">
<path d="M178.4,899l0.8,-2.9c6.5,1.7,13.4,-2.2,15.1,-8.8l-2.7,-0.7l5.6,-3.2l3.3,5.6l-3.3,-0.9c-2.2,8.2,-10.7,13.1,-18.8,10.9Z" class="g3_15" />
<path d="M178.4,899l0.8,-2.9c6.5,1.7,13.4,-2.2,15.1,-8.8l-2.7,-0.7l5.6,-3.2l3.3,5.6l-3.3,-0.9c-2.2,8.2,-10.7,13.1,-18.8,10.9Z" class="g6_15" />
</g>
<g clip-path="url(#c6_15)">
<path d="M178,904.7l1,2.9c6.3,-2.3,13.5,1,15.8,7.4l-2.6,1l5.9,2.7l2.7,-5.9l-3.1,1.2c-2.9,-8,-11.9,-12.1,-19.7,-9.3Z" class="g3_15" />
<path d="M178,904.7l1,2.9c6.3,-2.3,13.5,1,15.8,7.4l-2.6,1l5.9,2.7l2.7,-5.9l-3.1,1.2c-2.9,-8,-11.9,-12.1,-19.7,-9.3Z" class="g6_15" />
</g>
<g clip-path="url(#c7_15)">
<path d="M236.1,875.2l0.8,-2.9c6.6,1.7,13.4,-2.3,15.2,-8.8l-2.7,-0.7l5.6,-3.3l3.2,5.7L255,864.3c-2.2,8.2,-10.8,13.1,-18.9,10.9Z" class="g3_15" />
<path d="M236.1,875.2l0.8,-2.9c6.6,1.7,13.4,-2.3,15.2,-8.8l-2.7,-0.7l5.6,-3.3l3.2,5.7L255,864.3c-2.2,8.2,-10.8,13.1,-18.9,10.9Z" class="g6_15" />
</g>
<g clip-path="url(#c8_15)">
<path d="M234.2,928.5l1,2.9c6.4,-2.4,13.5,1,15.8,7.4l-2.6,0.9l5.9,2.8l2.7,-5.9l-3.1,1.1c-2.9,-7.9,-11.8,-12.1,-19.7,-9.2Z" class="g3_15" />
<path d="M234.2,928.5l1,2.9c6.4,-2.4,13.5,1,15.8,7.4l-2.6,0.9l5.9,2.8l2.7,-5.9l-3.1,1.1c-2.9,-7.9,-11.8,-12.1,-19.7,-9.2Z" class="g6_15" />
</g>
<g clip-path="url(#c9_15)">
<path d="M298.2,851.7l0.7,-3c6.6,1.8,13.4,-2.2,15.2,-8.7l-2.7,-0.7L317,836l3.3,5.6L317,840.8c-2.2,8.2,-10.7,13,-18.8,10.9Z" class="g3_15" />
<path d="M298.2,851.7l0.7,-3c6.6,1.8,13.4,-2.2,15.2,-8.7l-2.7,-0.7L317,836l3.3,5.6L317,840.8c-2.2,8.2,-10.7,13,-18.8,10.9Z" class="g6_15" />
</g>
<g clip-path="url(#c10_15)">
<path d="M299.2,952.3l1.1,2.9c6.3,-2.3,13.5,1,15.8,7.4l-2.6,0.9l5.9,2.8l2.7,-5.9l-3.1,1.2c-2.9,-8,-11.9,-12.1,-19.8,-9.3Z" class="g3_15" />
<path d="M299.2,952.3l1.1,2.9c6.3,-2.3,13.5,1,15.8,7.4l-2.6,0.9l5.9,2.8l2.7,-5.9l-3.1,1.2c-2.9,-8,-11.9,-12.1,-19.8,-9.3Z" class="g6_15" />
</g>
<g clip-path="url(#c11_15)">
<path d="M351.3,827.5l0.8,-2.9c6.5,1.7,13.4,-2.2,15.2,-8.8l-2.7,-0.7l5.6,-3.2l3.2,5.6l-3.2,-0.9c-2.2,8.2,-10.8,13.1,-18.9,10.9Z" class="g3_15" />
<path d="M351.3,827.5l0.8,-2.9c6.5,1.7,13.4,-2.2,15.2,-8.8l-2.7,-0.7l5.6,-3.2l3.2,5.6l-3.2,-0.9c-2.2,8.2,-10.8,13.1,-18.9,10.9Z" class="g6_15" />
</g>
<g clip-path="url(#c12_15)">
<path d="M350.9,977.1l1,2.8c6.4,-2.3,13.6,1.1,15.9,7.4l-2.7,1L371,991l2.8,-5.8l-3.2,1.1c-2.9,-8,-11.8,-12.1,-19.7,-9.2Z" class="g3_15" />
<path d="M350.9,977.1l1,2.8c6.4,-2.3,13.6,1.1,15.9,7.4l-2.7,1L371,991l2.8,-5.8l-3.2,1.1c-2.9,-8,-11.8,-12.1,-19.7,-9.2Z" class="g6_15" />
</g>
</svg>