<?xml version="1.0" encoding="UTF-8" standalone="no"?>
<!DOCTYPE svg PUBLIC "-//W3C//DTD SVG 1.1//EN"
"http://www.w3.org/Graphics/SVG/1.1/DTD/svg11.dtd">
<svg viewBox="0 0 935 1210" version="1.1" xmlns="http://www.w3.org/2000/svg" xmlns:xlink="http://www.w3.org/1999/xlink">
<defs>
<clipPath id="c0_3"><path d="M0,1210L0,0L935,0l0,1210Z" /></clipPath>
<style type="text/css"><![CDATA[
.g1_3{
fill: #D1DDDF;
}
.g2_3{
fill: #FFFFFF;
}
.g3_3{
fill: #6186A4;
}
]]></style>
</defs>
<g clip-path="url(#c0_3)">
<path d="M-18.2,1228.3l953.2,0L935,-18.2l-953.2,0l0,1246.5Z" class="g1_3" />
</g>
<path d="M82.5,1129.3l770,0l0,-1017.5l-770,0l0,1017.5Z" class="g2_3" />
<path d="M93.2,210.5l0,20.6l13,-10.3L93.3,210.5Z" class="g3_3" />
<path d="M93.2,246l0,20.6l13,-10.3L93.3,246Z" class="g3_3" />
<path d="M93.2,352.9l0,20.6l13,-10.3L93.3,352.9Z" class="g3_3" />
<path d="M93.2,641.1l0,20.6l13,-10.3L93.3,641.1Z" class="g3_3" />
<path d="M93.2,676.5l0,20.6l13,-10.3L93.3,676.5Z" class="g3_3" />
<path d="M93.2,964.3l0,20.6l13,-10.3L93.3,964.3Z" class="g3_3" />
<path d="M93.2,999.8l0,20.6l13,-10.3L93.3,999.8Z" class="g3_3" />
<path d="M93.2,1036.8l0,20.5l13,-10.2L93.3,1036.8Z" class="g3_3" />
<path d="M93.2,1072.2l0,20.6l13,-10.3L93.3,1072.2Z" class="g3_3" />
</svg>