<?xml version="1.0" encoding="UTF-8" standalone="no"?>
<!DOCTYPE svg PUBLIC "-//W3C//DTD SVG 1.1//EN"
"http://www.w3.org/Graphics/SVG/1.1/DTD/svg11.dtd">
<svg viewBox="0 0 935 1210" version="1.1" xmlns="http://www.w3.org/2000/svg" xmlns:xlink="http://www.w3.org/1999/xlink">
<defs>
<clipPath id="c0_20"><path d="M0,1210L0,0L935,0l0,1210Z" /></clipPath>
<style type="text/css"><![CDATA[
.g1_20{
fill: #D1DDDF;
}
.g2_20{
fill: #FFFFFF;
}
.g3_20{
fill: none;
stroke: #231F20;
stroke-width: 0.7638889;
stroke-linecap: butt;
stroke-linejoin: miter;
}
.g4_20{
fill: #6186A4;
}
]]></style>
</defs>
<g clip-path="url(#c0_20)">
<path d="M-953.2,1228.3l953.2,0L0,-18.2l-953.2,0l0,1246.5Z" class="g1_20" />
</g>
<path d="M0,1210l935,0L935,0L0,0L0,1210Z" class="g1_20" />
<path d="M82.5,1129.3l770,0L852.5,110l-770,0l0,1019.3Z" class="g2_20" />
<path d="M119.2,1087.2l696.6,0l0,-940.5l-696.6,0l0,940.5Z" class="g2_20" />
<path d="M142.1,283.9l650.8,0" class="g3_20" />
<path d="M103.2,177.3L73.5,153.5l-0.2,0l0,47.4Z" class="g4_20" />
</svg>