<?xml version="1.0" encoding="UTF-8" standalone="no"?>
<!DOCTYPE svg PUBLIC "-//W3C//DTD SVG 1.1//EN"
"http://www.w3.org/Graphics/SVG/1.1/DTD/svg11.dtd">
<svg viewBox="0 0 935 1210" version="1.1" xmlns="http://www.w3.org/2000/svg" xmlns:xlink="http://www.w3.org/1999/xlink">
<defs>
<clipPath id="c0_1"><path d="M0,1210L0,0L935,0l0,1210Z" /></clipPath>
<clipPath id="c1_1"><path d="M731.2,1109.5l0,-82.5l99.5,0l0,82.5Z" /></clipPath>
<style type="text/css"><![CDATA[
.g1_1{
fill: #FEF7CE;
}
.g2_1{
fill: #003F63;
}
.g3_1{
fill: #FFFFFF;
}
.g4_1{
fill: none;
stroke: #A6B9BB;
stroke-width: 4.5925;
stroke-linecap: butt;
stroke-linejoin: miter;
stroke-miterlimit: 4;
}
.g5_1{
fill: none;
stroke: #A6B9BB;
stroke-width: 13.75;
stroke-linecap: butt;
stroke-linejoin: miter;
stroke-miterlimit: 4;
}
.g6_1{
fill: #A6B9BB;
}
.g7_1{
fill: #780E28;
}
.g8_1{
fill: none;
stroke: #FFEC89;
stroke-width: 1.8333334;
stroke-linecap: butt;
stroke-linejoin: miter;
}
.g9_1{
fill: #7A1211;
}
]]></style>
</defs>
<path d="M0,0L0,1210Z" class="g1_1" />
<image preserveAspectRatio="none" x="-1" y="-1" width="613" height="937" xlink:href="img/1.png" />
<path d="M624.5,1210l310.5,0L935,0L624.5,0l0,1210Z" class="g2_1" />
<path d="M861.7,78.2c0.1,0,0.2,0,0.2,-0.1c0,-0.2,-0.1,-0.2,-0.2,-0.2l-0.3,0l0,0.3Zm-0.5,-0.5l0.5,0c0.2,0,0.4,0.1,0.4,0.3c0,0.2,-0.1,0.3,-0.3,0.4l0.4,0.4l-0.3,0l-0.3,-0.4l-0.2,0l0,0.4l-0.2,0Zm1.4,0.6l0,0c0,-0.6,-0.4,-1,-1,-1c-0.6,0,-1,0.4,-1,1c0,0.5,0.4,1,1,1c0.6,0,1,-0.5,1,-1m-2.1,0l0,0c0,-0.6,0.5,-1.2,1.1,-1.2c0.6,0,1.1,0.6,1.1,1.2c0,0.6,-0.5,1.1,-1.1,1.1c-0.6,0,-1.1,-0.5,-1.1,-1.1Z" class="g3_1" />
<path d="M700.4,77l1.3,0l-0.1,11l-1.2,0Z" class="g3_1" />
<path d="M707.3,77l1.2,0l7,8.8l0,-8.8l1.2,0l0,11l-1,0l-7.1,-9l-0.1,9l-1.2,0Z" class="g3_1" />
<path d="M725.2,78.2l-3.7,0l0,-1.2l8.6,0l0,1.2l-3.7,0l0,9.8l-1.2,0Z" class="g3_1" />
<path d="M734.9,77l8,0l0,1.1l-6.7,0l0,3.8l6,0l0,1.1l-6,0l0,3.9l6.8,0l0,1.1l-8.1,0Z" class="g3_1" />
<path d="M752.3,82.7c2.3,0,3.1,-1.1,3.1,-2.5c-0.1,-1.1,-0.6,-2.1,-3.1,-2.1l-3.1,0.1l0,4.4ZM747.9,77l4.4,0c1.7,0,2.8,0.4,3.6,1.1c0.3,0.4,0.8,1.3,0.8,2.1c0,1.8,-1.1,3,-3,3.3l3.4,4.5l-1.6,0l-3.2,-4.2l-3.1,0l0,4.2l-1.3,0Z" class="g3_1" />
<path d="M761.8,77l1.2,0l6.9,8.9l0,-8.9l1.2,0l0,11l-1,0L763,79l0,9l-1.2,0Z" class="g3_1" />
<path d="M783.8,84l-2.4,-5.6L778.8,84Zm-3,-7.1l1.1,0L787,88l-1.4,0l-1.2,-2.9l-6.1,0L777,88l-1.3,0Z" class="g3_1" />
<path d="M793.1,78.2l-3.7,0l0,-1.2l8.7,0l0,1.2l-3.7,0L794.3,88l-1.2,0Z" class="g3_1" />
<path d="M803,77l1.2,0l0,11L803,88l0,-11Z" class="g3_1" />
<path d="M819.4,82.5l0,0c0,-2.7,-2.1,-4.6,-4.4,-4.5c-2.7,0,-4.3,2.1,-4.3,4.5c0,2.6,1.7,4,3.2,4.4c3,0.9,5.6,-1.6,5.5,-4.4m-10,0.1l0,-0.1c0,-3,2.3,-5.7,5.5,-5.7c3.6,0,5.7,2.7,5.7,5.7c0.2,3.3,-2.9,6.5,-7,5.6c-2.3,-0.5,-4.1,-2.7,-4.2,-5.5Z" class="g3_1" />
<path d="M825.7,77l1.2,0l7,8.8l0,-8.8l1.2,0l0,11l-1,0L827,79l0,9l-1.3,0Z" class="g3_1" />
<path d="M847.8,84l-2.5,-5.6L842.8,84Zm-3.1,-7.1l1.2,0l5,11.1l-1.3,0l-1.3,-2.9l-6,0L841,88l-1.3,0Z" class="g3_1" />
<path d="M855.6,77l1.2,0l0,9.9l6.2,0l0,1.1l-7.4,0Z" class="g3_1" />
<path d="M681.6,59.1l-5.4,0l0,-3.4l14.6,0l0,3.4l-5.3,0l0,13.4l-3.9,0Z" class="g3_1" />
<path d="M707,64.1l0,0c0,-2.9,-2.2,-5.3,-5.4,-5.3c-3.1,0,-5.3,2.4,-5.3,5.3c0,2.9,2.3,5.3,5.4,5.3c3.1,0,5.3,-2.4,5.3,-5.3m-14.7,0l0,0c0,-4.8,3.9,-8.7,9.4,-8.7c5.4,0,9.3,3.9,9.3,8.7c0,4.8,-3.9,8.7,-9.4,8.7c-5.4,0,-9.3,-3.9,-9.3,-8.7Z" class="g3_1" />
<path d="M723.5,65.5L721.1,60l-2.3,5.5Zm-4.1,-9.9l3.6,0l7.5,16.9l-4,0l-1.6,-3.8l-7.5,0l-1.6,3.8l-4,0Z" class="g3_1" />
<path d="M731.8,70.1l2.3,-2.7c1.6,1.3,3.3,2.1,5.3,2.1c1.6,0,2.5,-0.6,2.5,-1.6l0,-0.1c0,-0.9,-0.6,-1.4,-3.5,-2.1c-3.6,-0.9,-5.9,-1.8,-5.9,-5.1l0,-0.1c0,-3,2.6,-5.1,6.2,-5.1c2.6,0,4.8,0.8,6.5,2.2l-2,2.8c-1.5,-1.1,-3.1,-1.7,-4.6,-1.7c-1.4,0,-2.2,0.7,-2.2,1.5c0,1.1,0.7,1.5,3.8,2.2c3.6,0.9,5.6,2.2,5.6,5.1c0,3.4,-2.7,5.3,-6.5,5.3c-2.7,0,-5.4,-0.9,-7.5,-2.7Z" class="g3_1" />
<path d="M752.9,59.1l-5.4,0l0,-3.4l14.6,0l0,3.4l-5.3,0l0,13.4l-3.9,0Z" class="g3_1" />
<path d="M765.1,55.7l4.2,0l4.6,7.1l4.7,-7.1l4.2,0l0,16.8l-3.9,0l0,-11l-5,7.2l-0.1,0l-4.9,-7.1l0,10.9l-3.8,0Z" class="g3_1" />
<path d="M797.1,65.5L794.8,60l-2.4,5.5ZM793,55.6l3.6,0l7.6,16.9l-4.1,0l-1.6,-3.8l-7.4,0l-1.7,3.8l-3.9,0Z" class="g3_1" />
<path d="M805.5,70.1l2.2,-2.7c1.6,1.3,3.3,2.1,5.3,2.1c1.6,0,2.6,-0.6,2.6,-1.6l0,-0.1c0,-0.9,-0.6,-1.4,-3.6,-2.1c-3.5,-0.9,-5.8,-1.8,-5.8,-5.1l0,-0.1c0,-3,2.5,-5.1,6.1,-5.1c2.6,0,4.8,0.8,6.6,2.2l-2,2.8c-1.6,-1.1,-3.1,-1.7,-4.6,-1.7c-1.5,0,-2.3,0.7,-2.3,1.5c0,1.1,0.8,1.5,3.8,2.2c3.6,0.9,5.6,2.2,5.6,5.1c0,3.4,-2.7,5.3,-6.5,5.3c-2.6,0,-5.3,-0.9,-7.4,-2.7Z" class="g3_1" />
<path d="M826.5,59.1l-5.3,0l0,-3.4l14.6,0l0,3.4l-5.4,0l0,13.4l-3.9,0Z" class="g3_1" />
<path d="M838.8,55.7l13.3,0l0,3.3l-9.5,0l0,3.4l8.3,0l0,3.3l-8.3,0l0,3.5l9.6,0l0,3.3l-13.4,0Z" class="g3_1" />
<path d="M863.5,63.9c1.9,0,2.9,-1,2.9,-2.4l0,-0.1c0,-1.6,-1.1,-2.4,-3,-2.4l-3.9,0l0,4.9Zm-7.9,-8.2l8.1,0c2.3,0,4,0.6,5.2,1.7c0.9,0.9,1.5,2.3,1.5,3.8l0,0.1c0,2.7,-1.6,4.4,-3.8,5.2l4.3,6l-4.5,0l-3.8,-5.4l-3.1,0l0,5.4l-3.9,0Z" class="g3_1" />
<path d="M872.7,70.1L875,67.4c1.5,1.3,3.2,2.1,5.2,2.1c1.6,0,2.6,-0.6,2.6,-1.6l0,-0.1c0,-0.9,-0.6,-1.4,-3.6,-2.1c-3.5,-0.9,-5.8,-1.8,-5.8,-5.1l0,-0.1c0,-3,2.5,-5.1,6.1,-5.1c2.6,0,4.8,0.8,6.6,2.2l-2,2.8c-1.6,-1.1,-3.1,-1.7,-4.6,-1.7c-1.5,0,-2.3,0.7,-2.3,1.5c0,1.1,0.8,1.5,3.8,2.2c3.6,0.9,5.6,2.2,5.6,5.1c0,3.4,-2.6,5.3,-6.4,5.3c-2.7,0,-5.4,-0.9,-7.5,-2.7Z" class="g3_1" />
<image preserveAspectRatio="none" x="-75" y="-106" width="1401" height="1405" xlink:href="img/2.png" />
<g clip-path="url(#c0_1)">
<path d="M636,-18.2l0,1246.5" class="g4_1" />
<path d="M617.6,-18.2l0,1246.5" class="g5_1" />
</g>
<path d="M0,1210l610.8,0l0,-275L0,935l0,275Z" class="g1_1" />
<path d="M559.2,456.5l375.8,0L935,304l-375.8,0l0,152.5Z" class="g6_1" />
<path d="M830.7,1057.2l-10,0C815.9,1039.8,799.9,1027,780.9,1027c-19,0,-35,12.8,-39.8,30.2l-9.9,0l0,22.3l10,0c4.9,17.3,20.8,30,39.7,30c18.9,0,34.8,-12.7,39.7,-30l10.1,0Z" class="g7_1" />
<image x="741" y="1028" width="80" height="80" xlink:href="shade/1.png" />
<g clip-path="url(#c1_1)">
<path d="M748.3,1087.2c-0.9,-1.6,-1.7,-3.3,-2.4,-5.1c0.9,0.8,1.9,1.5,2.9,2.2c2,1.2,4.1,2.3,6.2,3.3c0.1,0,0.1,0.1,0.1,0.2c1.2,4.2,3.2,8.1,5.9,11.3c0.8,1,1.7,1.9,2.7,2.8c-3.8,-2,-7.2,-4.5,-10,-7.4c-2.1,-2.2,-3.9,-4.7,-5.4,-7.3m59.5,4.8c-0.4,-0.7,-0.9,-1.3,-1.4,-1.8c-1.1,-1,-2.3,-1.9,-3.5,-2.7c-0.5,-0.3,-0.9,-0.5,-1.3,-0.8c1,-2,2,-4,2.8,-6.1c1.4,0,2.8,0.1,4.2,0.1c1.6,0,3.3,-0.1,5,-0.4c0.8,-0.2,1.7,-0.4,2.4,-0.7c0.4,-0.2,0.8,-0.4,1.1,-0.7c0.1,-0.1,0.1,-0.1,0.2,-0.2c-1.8,6.1,-5,11.4,-9.2,15.7c0.1,-0.1,0.1,-0.2,0.1,-0.3c0.2,-0.7,0,-1.5,-0.4,-2.1m-24.7,12.8c3.9,-1.5,7.5,-4.1,10.5,-7.1c0.2,-0.2,0.3,-0.4,0.5,-0.6c2.1,0.2,4.1,0.2,6.2,0.1c1.5,-0.1,3,-0.2,4.4,-0.6c0.7,-0.2,1.4,-0.4,2,-0.8c-7.4,6.8,-17.3,10.6,-27.7,10.1c1.4,-0.2,2.8,-0.6,4.1,-1.1m-9.3,0.5c0.6,-0.2,1.2,-0.5,1.7,-0.9c1.4,-0.9,2.6,-2.2,3.7,-3.5c1.2,-1.6,2.4,-3.3,3.4,-5.2c2.9,0.5,5.9,1,8.8,1.2c0.7,0.1,1.5,0.2,2.2,0.2c-0.1,0.1,-0.2,0.2,-0.3,0.4c-3.1,3,-6.6,5.4,-10.4,6.8c-1.9,0.7,-3.9,1.1,-5.9,1.2c-0.5,0.1,-1.1,0.1,-1.6,0.1c-0.5,-0.1,-1.1,-0.2,-1.6,-0.3m-19.1,-30.7c1.9,0,3.9,0.1,5.8,0.3c2.3,0.2,4.5,0.5,6.8,0.9c-0.7,3.7,-1.1,7.4,-1.3,11.2c0,1.1,0,2.3,0,3.5c-3,-1,-5.8,-2.2,-8.7,-3.5c-0.4,-0.2,-0.9,-0.4,-1.4,-0.6c-0.9,-3.8,-1.3,-7.8,-1.2,-11.8m-9.8,4.2c-0.3,-0.6,-0.5,-1.2,-0.3,-1.6c0.1,-0.5,0.5,-0.9,1,-1.2c0.6,-0.3,1.3,-0.6,1.9,-0.8c1.4,-0.3,2.8,-0.5,4.3,-0.5c0.5,-0.1,1.1,-0.1,1.6,-0.1c0,3.8,0.3,7.5,1.2,11.2c-1.7,-0.9,-3.4,-1.8,-5,-2.9c-1.2,-0.7,-2.4,-1.6,-3.4,-2.6c-0.5,-0.5,-1,-1,-1.3,-1.5m72.3,-21.9c-0.4,-0.6,-0.9,-1.2,-1.4,-1.7c-1.1,-1,-2.3,-1.9,-3.6,-2.7c-1.7,-1.1,-3.5,-2.1,-5.3,-3c-0.1,-0.3,-0.2,-0.7,-0.3,-1c-0.8,-3,-2,-5.8,-3.5,-8.4c0.2,-0.1,0.4,-0.2,0.6,-0.3c0.3,-0.2,0.6,-0.5,0.7,-0.9c0.1,-0.2,0.1,-0.5,0,-0.7c6.1,4.8,10.6,11.4,12.8,18.8l0,-0.1m0.5,19.7c-0.1,-0.4,-0.3,-0.8,-0.6,-1.1c-0.5,-0.7,-1.1,-1.3,-1.8,-1.8c-1.3,-1.1,-2.7,-2,-4.1,-2.9c-1.2,-0.7,-2.5,-1.3,-3.7,-1.9c0.3,-2.2,0.5,-4.5,0.6,-6.7c0.5,0,1,0,1.5,0c1.5,-0.1,3,-0.3,4.5,-0.7c0.7,-0.1,1.4,-0.4,2.1,-0.8c0.6,-0.3,1.2,-0.9,1.4,-1.6c0.1,-0.2,0.1,-0.3,0.1,-0.5c1.5,5.8,1.6,12.1,0.1,18.3c0,-0.1,-0.1,-0.2,-0.1,-0.3m-11.4,-1.9c0.5,-1.9,0.9,-3.8,1.2,-5.8c1.1,0.6,2.3,1.2,3.4,1.8c1.5,0.9,2.9,1.8,4.2,2.8c0.6,0.6,1.2,1.2,1.7,1.8c0.3,0.4,0.5,0.7,0.7,1.1c0.1,0.4,0.2,0.9,0,1.3c-0.1,0.4,-0.3,0.8,-0.6,1c-0.4,0.3,-0.7,0.5,-1.1,0.7c-0.8,0.3,-1.6,0.5,-2.4,0.7c-1.7,0.3,-3.4,0.4,-5.1,0.4c-1.3,0,-2.5,-0.1,-3.8,-0.2c0.7,-1.8,1.3,-3.7,1.8,-5.6m-8,5c-2.7,-0.4,-5.4,-0.9,-8.1,-1.4c0.7,-2.4,1.5,-4.8,2.1,-7.3c0.7,-2.4,1.2,-4.9,1.7,-7.3c2.7,0.8,5.2,1.7,7.8,2.8c1.8,0.7,3.7,1.5,5.4,2.3c-0.3,2,-0.7,3.9,-1.2,5.8c-0.5,2,-1.1,3.9,-1.8,5.7c-2,-0.1,-3.9,-0.3,-5.9,-0.6m-3.3,3.6c-1.9,-0.8,-3.8,-1.6,-5.8,-2.3c0.3,-0.8,0.6,-1.5,0.8,-2.2c2.8,0.5,5.6,0.9,8.5,1.2c1.8,0.3,3.7,0.4,5.6,0.6c-0.8,2,-1.7,4,-2.7,6c-2.1,-1.2,-4.2,-2.3,-6.4,-3.3m-26.3,-9.7c3.3,1,6.6,1.9,9.9,2.7c3.7,1,7.4,1.8,11.2,2.4c-0.3,0.8,-0.5,1.5,-0.8,2.2c-3.5,-1.4,-7.1,-2.5,-10.8,-3.6c-3.2,-0.9,-6.5,-1.7,-9.8,-2.3c0.1,-0.5,0.2,-1,0.3,-1.4M766,1053.3c2.1,0.8,4.3,1.7,6.4,2.4c-0.1,0.5,-0.3,0.9,-0.4,1.4c-3,-0.6,-5.9,-1.1,-8.8,-1.5c-1.5,-0.2,-3,-0.4,-4.5,-0.5c0.6,-1.5,1.2,-3,1.9,-4.4c1.8,0.9,3.6,1.8,5.4,2.6m3.7,-13.5c3.1,0.3,6.2,0.8,9.3,1.3c-0.6,1,-1.1,2,-1.7,3.1c-1.7,3.3,-3.1,6.8,-4.4,10.4c-2.2,-0.8,-4.3,-1.7,-6.4,-2.6c-1.8,-0.8,-3.5,-1.7,-5.2,-2.6l0,-0.1c2,-3.5,4.3,-6.8,6.9,-9.6c0.5,0,1,0.1,1.5,0.1m5.8,-6c0.4,0.3,0.7,0.6,1.1,0.8c1.2,0.9,2.4,1.5,3.7,2.1c0.4,0.1,0.8,0.3,1.2,0.5c-0.5,0.7,-1,1.4,-1.5,2.2c-0.2,0.3,-0.4,0.6,-0.5,0.9c-3.2,-0.7,-6.4,-1.3,-9.6,-1.6c-0.2,-0.1,-0.4,-0.1,-0.6,-0.1c1.9,-1.9,4,-3.5,6.2,-4.8m20.6,-0.4c1.6,1.1,3.1,2.5,4.4,4c0.8,0.9,1.4,1.8,2,2.8c-0.6,0.1,-1.3,0.2,-2,0.3c-1.3,0.1,-2.7,0,-4.1,-0.1c-0.2,0,-0.4,0,-0.5,0c-0.1,-0.7,-0.2,-1.3,-0.3,-1.9c-0.2,-1.7,-0.7,-3.4,-1.4,-4.8c-0.3,-0.6,-0.6,-1.2,-1,-1.6c0.5,0.1,1,0.3,1.4,0.5c0.5,0.3,1,0.5,1.5,0.8m8.2,14.9c-2.7,-1.2,-5.4,-2.3,-8.2,-3.3c0,-1.5,-0.1,-3,-0.2,-4.4c0.2,0,0.4,0,0.6,0c1.3,0.1,2.7,0.2,4.1,0c0.7,0,1.4,-0.1,2,-0.3c1.6,2.5,2.8,5.3,3.6,8.2c0.1,0.3,0.2,0.5,0.3,0.8c-0.8,-0.3,-1.5,-0.7,-2.2,-1m-9.8,12.8c2.1,0.3,4.1,0.6,6.2,0.8c2.4,0.2,4.8,0.3,7.2,0.3c-0.1,2.2,-0.3,4.4,-0.6,6.6c-1.7,-0.9,-3.5,-1.7,-5.2,-2.4c-2.6,-1.1,-5.3,-2.1,-8,-3.1c0.1,-0.7,0.3,-1.5,0.4,-2.2m-6.3,-21.8c2.4,0.6,4.8,1,7.2,1.3c0.2,1,0.2,2.1,0.3,3.2c0,0.4,0,0.7,0,1.1c-2.7,-1,-5.5,-1.8,-8.3,-2.6c-2.3,-0.7,-4.7,-1.3,-7.1,-1.8c0.7,-1.1,1.3,-2.1,2,-3c1.9,0.7,3.9,1.3,5.9,1.8m-4.7,-3.6c1.1,-1.3,2.2,-2.5,3.5,-3.3c0.6,-0.5,1.2,-0.8,1.9,-1c0.6,-0.2,1.3,-0.2,1.9,-0.1c1.2,0.3,2.2,1.4,2.9,2.7c0.7,1.4,1.2,3,1.5,4.7c0.1,0.5,0.1,1.1,0.2,1.6c-2.4,-0.3,-4.8,-0.8,-7.1,-1.5c-1.9,-0.5,-3.8,-1.2,-5.6,-1.9c0.3,-0.4,0.5,-0.8,0.8,-1.2m4,-5.1c0.4,0.1,0.7,0.1,1,0.2c-0.6,0.2,-1.1,0.5,-1.7,0.8c-1.3,0.9,-2.6,2.1,-3.7,3.5c-0.4,0.5,-0.8,1,-1.2,1.5c-0.4,-0.2,-0.9,-0.4,-1.3,-0.6c-1.3,-0.6,-2.5,-1.3,-3.6,-2.1c-0.3,-0.2,-0.5,-0.3,-0.8,-0.5c1,-0.6,2,-1,3,-1.4c1.8,-0.7,3.8,-1.2,5.7,-1.4c0.9,0,1.8,-0.1,2.6,0m-7.6,10.7c2.4,0.4,4.8,1,7.2,1.6c2.9,0.7,5.8,1.5,8.6,2.4c0.1,1.3,0,2.6,0,3.9c-0.2,3.8,-0.7,7.6,-1.3,11.3c-3.8,-0.6,-7.5,-1.5,-11.3,-2.6c-3.1,-0.9,-6.2,-1.9,-9.3,-3c0,0,0,-0.1,0.1,-0.1c1.2,-3.5,2.6,-6.9,4.2,-10.1c0.6,-1.1,1.2,-2.3,1.8,-3.4m3.1,18.5c-3.3,-0.9,-6.7,-1.7,-10,-2.5c0.1,-0.4,0.3,-0.8,0.4,-1.3c3.2,1.1,6.4,2,9.7,2.8c3.7,0.9,7.4,1.7,11.2,2.3c-0.1,0.7,-0.3,1.4,-0.4,2.1c-3.6,-1.2,-7.3,-2.4,-10.9,-3.4m-12.4,5.5c0.6,-2.4,1.3,-4.7,2.1,-7.1c3.3,0.7,6.7,1.4,10,2.2c3.7,0.9,7.4,2,11.1,3.2c-0.5,2.5,-1,4.9,-1.7,7.4c-0.6,2.4,-1.4,4.8,-2.1,7.2c-3.8,-0.7,-7.6,-1.7,-11.3,-2.7c-3.3,-0.9,-6.6,-1.9,-9.8,-3c0.5,-2.4,1.1,-4.8,1.7,-7.2m37.3,-3.9c0,0.2,0,0.4,0,0.5c-2.5,0.1,-4.9,-0.1,-7.4,-0.4c-2,-0.2,-3.9,-0.6,-5.9,-0.9c0,-0.1,0.1,-0.3,0.1,-0.4c0.6,-3.7,1.1,-7.3,1.3,-11c0.1,-1.2,0.1,-2.5,0.1,-3.8c2.7,0.9,5.3,1.9,7.9,2.9c0.8,0.4,1.7,0.8,2.5,1.2c1,3.8,1.4,7.9,1.4,11.9m0.2,0.1c0.1,-4,-0.3,-8,-1.2,-11.9c1.7,0.9,3.4,1.7,5,2.8c1.3,0.8,2.5,1.6,3.6,2.6c0.5,0.6,1,1.1,1.4,1.8c0.4,0.6,0.6,1.4,0.4,2.1c-0.2,0.7,-0.8,1.3,-1.4,1.6c-0.7,0.4,-1.4,0.6,-2.1,0.8c-1.4,0.4,-2.9,0.5,-4.4,0.6c-0.4,0,-0.8,0,-1.3,0c0,-0.1,0,-0.3,0,-0.4m-3.8,-23.4c0.1,0.2,0.1,0.5,0,0.7c-0.1,0.4,-0.4,0.7,-0.7,0.9c-0.2,0.1,-0.4,0.2,-0.6,0.3c-0.6,-1,-1.3,-2,-2,-2.9c-0.9,-1.1,-1.9,-2.1,-3,-3c2.3,1.1,4.4,2.5,6.3,4m-28.9,-5.5c-0.2,-0.2,-0.4,-0.5,-0.6,-0.8c-0.1,-0.3,-0.2,-0.6,-0.1,-0.8c0,-0.2,0.2,-0.4,0.3,-0.5c2.5,-0.4,5.1,-0.6,7.7,-0.4c-1.3,0.2,-2.5,0.5,-3.7,1c-1.2,0.4,-2.4,0.9,-3.5,1.6c-0.1,-0.1,-0.1,-0.1,-0.1,-0.1m-18.9,29c0.5,-1.8,1.1,-3.6,1.7,-5.3c1.6,0.1,3.2,0.2,4.8,0.4c2.9,0.4,5.8,0.8,8.7,1.3c-0.8,2.3,-1.5,4.7,-2.1,7c-0.6,2.4,-1.2,4.7,-1.7,7.1c-2.7,-0.9,-5.5,-2,-8.2,-3.1c-1.4,-0.7,-2.9,-1.3,-4.3,-2c0.3,-1.8,0.7,-3.6,1.1,-5.4m-12,-3.2c0,-0.1,0.1,-0.2,0.1,-0.2c0.2,-0.4,0.7,-0.8,1.3,-1c0.6,-0.3,1.4,-0.5,2.2,-0.7c1.6,-0.3,3.2,-0.4,4.9,-0.4c1.3,0,2.6,0,3.9,0.1c-0.6,1.7,-1.2,3.3,-1.6,5c-0.5,1.7,-0.8,3.5,-1.1,5.2c-1.2,-0.6,-2.3,-1.2,-3.4,-1.8c-1.5,-0.9,-2.9,-1.7,-4.1,-2.8c-0.6,-0.5,-1.2,-1.1,-1.6,-1.7c-0.4,-0.5,-0.6,-1,-0.6,-1.5c0,0,0,-0.1,0,-0.2m10.2,14.9c0.1,-1.6,0.2,-3.2,0.5,-4.8c1.3,0.6,2.7,1.2,4.1,1.7c2.8,1.1,5.6,2.1,8.4,3c-0.1,0.6,-0.2,1.1,-0.3,1.6c-2.2,-0.4,-4.4,-0.8,-6.7,-1.1c-2,-0.2,-4,-0.3,-6,-0.4m19.2,19.7c-2.4,-0.7,-4.7,-1.4,-7.1,-2.2c0,-1.3,0.1,-2.7,0.1,-4c0.3,-3.6,0.7,-7.2,1.4,-10.8l0,-0.1c3.2,0.6,6.4,1.3,9.6,2c3.7,1,7.4,2,11,3.3c-1.3,3.6,-2.7,7.1,-4.4,10.4c-0.6,1.2,-1.3,2.4,-1.9,3.5c-2.9,-0.6,-5.8,-1.3,-8.7,-2.1m-2.5,11.8c-1.2,-0.4,-2.2,-1.5,-2.8,-2.8c-0.7,-1.4,-1.1,-3,-1.3,-4.7c-0.3,-1.7,-0.4,-3.5,-0.5,-5.4c2.4,0.7,4.7,1.4,7,2c2.8,0.7,5.6,1.3,8.4,1.8c-0.1,0.2,-0.2,0.4,-0.4,0.6c-0.9,1.5,-1.9,2.9,-3,4.2c-1.1,1.3,-2.3,2.5,-3.5,3.3c-0.7,0.5,-1.3,0.8,-2,0.9c-0.6,0.2,-1.3,0.2,-1.9,0.1M801.1,1087c-1.9,3.6,-4.4,6.9,-7.2,9.8c-0.9,-0.1,-1.8,-0.1,-2.7,-0.3c-2.7,-0.3,-5.5,-0.8,-8.3,-1.3c0.7,-1.1,1.3,-2.3,1.9,-3.5c1.6,-3.2,3,-6.6,4.2,-10.1c0.1,-0.1,0.1,-0.2,0.1,-0.3c1.9,0.6,3.8,1.3,5.6,2.1c2.3,1,4.5,2,6.6,3.2c0,0.2,-0.1,0.3,-0.2,0.4m0.5,-0.2c0.3,0.2,0.7,0.4,1,0.6c1.3,0.8,2.5,1.7,3.5,2.7c0.6,0.5,1.1,1.1,1.4,1.7c0.4,0.6,0.7,1.4,0.5,2.1c-0.2,0.8,-0.8,1.3,-1.4,1.7c-0.7,0.3,-1.4,0.6,-2.1,0.8c-1.5,0.3,-2.9,0.5,-4.4,0.6c-1.9,0,-3.8,0,-5.7,-0.2c2.7,-2.8,5.1,-6.2,7,-9.7c0,-0.1,0.1,-0.2,0.2,-0.3m-31.1,-55.3c1.2,-0.4,2.4,-0.6,3.6,-0.9c0,0.1,-0.1,0.2,-0.1,0.2c-0.1,0.3,0,0.6,0,0.8c0,0.3,0.1,0.5,0.2,0.7c0.2,0.3,0.4,0.5,0.6,0.7c-2.4,1.4,-4.6,3.1,-6.6,5c-0.1,0.2,-0.2,0.3,-0.4,0.4c-2.3,-0.2,-4.6,-0.3,-7,-0.2c-1.2,0.1,-2.4,0.2,-3.6,0.4c1.5,-1.2,3.2,-2.4,4.9,-3.4c2.6,-1.6,5.4,-2.8,8.4,-3.7m-15.9,9.4c0.1,0,0.1,0,0.1,0c0.6,-0.4,1.2,-0.6,1.9,-0.8c1.4,-0.3,2.8,-0.5,4.3,-0.5c1.9,-0.2,3.9,-0.1,5.9,0c-2.5,2.7,-4.7,5.8,-6.5,9.1c0,0,-0.1,0,-0.1,0.1c-0.5,-0.3,-1,-0.6,-1.5,-1c-1.2,-0.7,-2.4,-1.6,-3.4,-2.6c-0.5,-0.5,-1,-1,-1.3,-1.5c-0.3,-0.6,-0.5,-1.2,-0.4,-1.6c0.1,-0.1,0.1,-0.2,0.1,-0.2c0.3,-0.3,0.6,-0.7,0.9,-1m-2.3,2.6c0.1,0.4,0.2,0.7,0.4,1c0.5,0.7,1,1.3,1.6,1.9c1.1,1.1,2.4,2,3.6,2.8c0.6,0.3,1.1,0.6,1.6,0.9c-0.8,1.6,-1.5,3.2,-2.2,4.9c-1.4,-0.1,-2.8,-0.2,-4.3,-0.2c-1.7,0,-3.4,0.1,-5.2,0.4c-0.8,0.1,-1.7,0.3,-2.5,0.7c1.3,-3.9,3.2,-7.6,5.7,-10.8c0.4,-0.6,0.8,-1.1,1.3,-1.6m-8.7,29.7c-0.6,-4,-0.4,-8.1,0.3,-12.1c0.6,0.8,1.2,1.4,1.9,1.9c1.3,1.1,2.8,2.1,4.3,2.9c1.2,0.7,2.5,1.4,3.8,2c-0.2,1.8,-0.4,3.6,-0.4,5.4c-0.6,0,-1.2,0,-1.8,0c-1.5,0.1,-3,0.3,-4.5,0.6c-0.8,0.2,-1.5,0.5,-2.3,0.9c-0.3,0.2,-0.6,0.4,-0.9,0.7c-0.2,-0.8,-0.3,-1.5,-0.4,-2.3m22.3,29.3c-1.6,-1.1,-3,-2.5,-4.3,-4.1c-2.4,-2.9,-4.1,-6.5,-5.2,-10.2c0.2,0,0.3,0.1,0.5,0.2c3,1.2,6,2.3,9.1,3.3c0,0.2,0,0.5,0,0.7c0.1,1.8,0.3,3.6,0.6,5.3c0.3,1.7,0.8,3.4,1.5,4.8c0.3,0.6,0.7,1.1,1.1,1.6c-0.4,-0.1,-0.7,-0.2,-1.1,-0.3c-0.7,-0.4,-1.4,-0.8,-2.2,-1.3M791,1029.8c-21.1,-5.5,-42.7,7.1,-48.3,28.1c-5.5,21,7.1,42.7,28.1,48.2c21,5.6,42.7,-7,48.2,-28c5.6,-21.1,-7,-42.7,-28,-48.3Z" class="g3_1" />
<path d="M790.9,1030.4c-20.6,-5.4,-41.8,7,-47.2,27.7c-5.5,20.7,6.8,42,27.4,47.4c20.6,5.5,41.8,-6.9,47.3,-27.6c5.4,-20.8,-6.9,-42,-27.5,-47.5Z" class="g8_1" />
</g>
<path d="M732.7,1078l96.4,0l0,-19.2l-96.4,0l0,19.2Z" class="g3_1" />
<path d="M815.2,1071c0,0,0.1,-0.1,0.1,-0.1c0,-0.1,-0.1,-0.1,-0.1,-0.1l-0.1,0l0,0.2Zm-0.2,-0.3l0.2,0c0.1,0,0.2,0.1,0.2,0.2c0,0.1,-0.1,0.1,-0.1,0.1l0.1,0.2l-0.1,0l-0.1,-0.1l-0.1,0l0,0.1l-0.1,0Zm0.6,0.3l0,0c0,-0.2,-0.2,-0.4,-0.4,-0.4c-0.3,0,-0.5,0.2,-0.5,0.4c0,0.2,0.2,0.4,0.5,0.4c0.2,0,0.4,-0.2,0.4,-0.4m-0.9,0l0,0c0,-0.3,0.2,-0.5,0.5,-0.5c0.2,0,0.4,0.2,0.4,0.5c0,0.2,-0.2,0.5,-0.4,0.5c-0.3,0,-0.5,-0.2,-0.5,-0.5Z" class="g9_1" />
<path d="M746,1070.4l0.6,0l-0.1,4.8l-0.5,0Z" class="g7_1" />
<path d="M749,1070.4l0.5,0l3,3.8l0,-3.8l0.5,0l0,4.8l-0.4,0l-3.1,-3.9l0,3.9l-0.5,0Z" class="g7_1" />
<path d="M756.6,1070.9l-1.6,0l0,-0.4l3.8,0l-0.1,0.4l-1.5,0l0,4.3l-0.6,0Z" class="g7_1" />
<path d="M760.8,1070.4l3.4,0l0,0.5l-2.9,0l0,1.6l2.6,0l0,0.5l-2.6,0l0,1.7l3,0l0,0.5l-3.5,0Z" class="g7_1" />
<path d="M768.2,1072.9c1,0,1.4,-0.5,1.4,-1.1c-0.1,-0.4,-0.3,-0.9,-1.3,-0.9l-1.4,0l0,2Zm-1.8,-2.5l1.9,0c0.7,0,1.2,0.2,1.5,0.5c0.1,0.2,0.3,0.6,0.3,0.9c0,0.8,-0.4,1.3,-1.3,1.4l1.5,2l-0.7,0l-1.3,-1.9l-1.4,0l0,1.9l-0.5,0Z" class="g7_1" />
<path d="M772.3,1070.4l0.5,0l3,3.8l0,-3.8l0.5,0l0,4.8l-0.4,0l-3.1,-3.9l0,3.9l-0.5,0Z" class="g7_1" />
<path d="M781.8,1073.4l-1.1,-2.4l-1.1,2.4Zm-1.3,-3l0.5,0l2.1,4.8l-0.6,0l-0.5,-1.3l-2.6,0l-0.5,1.3l-0.6,0Z" class="g7_1" />
<path d="M785.7,1070.9l-1.6,0l0,-0.5l3.8,0l0,0.5l-1.6,0l0,4.3l-0.6,0Z" class="g7_1" />
<path d="M790,1070.4l0.5,0l0,4.8l-0.5,0l0,-4.8Z" class="g7_1" />
<path d="M797,1072.8l0,0c0,-1.2,-0.9,-2,-1.9,-1.9c-1.1,0,-1.8,0.9,-1.8,1.9c0,1.1,0.7,1.7,1.3,1.9c1.3,0.4,2.4,-0.7,2.4,-1.9m-4.3,0l0,0c0,-1.3,1,-2.4,2.4,-2.4c1.5,0,2.4,1.1,2.4,2.4c0.1,1.4,-1.2,2.8,-3,2.4c-1,-0.2,-1.8,-1.2,-1.8,-2.4Z" class="g7_1" />
<path d="M799.7,1070.4l0.5,0l3,3.8l0,-3.8l0.5,0l0,4.8l-0.4,0l-3.1,-3.9l0,3.9l-0.5,0Z" class="g7_1" />
<path d="M809.2,1073.4l-1.1,-2.4l-1.1,2.4Zm-1.3,-3l0.5,0l2.1,4.8l-0.6,0l-0.5,-1.3l-2.6,0l-0.5,1.3l-0.6,0Z" class="g7_1" />
<path d="M812.5,1070.4l0.5,0l0,4.3l2.7,0l0,0.5l-3.2,0Z" class="g7_1" />
<path d="M738,1062.8l-2.3,0l0,-1.4l6.3,0l0,1.4l-2.3,0l0,5.8l-1.7,0Z" class="g2_1" />
<path d="M748.9,1065l0,0c0,-1.3,-1,-2.3,-2.3,-2.3c-1.4,0,-2.3,1,-2.3,2.3c0,1.2,1,2.2,2.3,2.2c1.3,0,2.3,-1,2.3,-2.2m-6.3,0l0,0c0,-2.1,1.7,-3.8,4,-3.8c2.3,0,4,1.7,4,3.8c0,2,-1.7,3.7,-4,3.7c-2.3,0,-4,-1.7,-4,-3.7Z" class="g2_1" />
<path d="M756,1065.6l-1.1,-2.4l-1,2.4Zm-1.8,-4.3l1.5,0l3.3,7.3l-1.8,0l-0.7,-1.6l-3.1,0l-0.7,1.6l-1.7,0Z" class="g2_1" />
<path d="M759.5,1067.5l1,-1.1c0.7,0.5,1.4,0.9,2.3,0.9c0.6,0,1.1,-0.3,1.1,-0.7c0,-0.4,-0.3,-0.6,-1.6,-0.9c-1.5,-0.4,-2.5,-0.8,-2.5,-2.2l0,-0.1c0,-1.3,1.1,-2.1,2.7,-2.1c1.1,0,2,0.3,2.8,0.9l-0.9,1.2c-0.7,-0.5,-1.3,-0.7,-2,-0.7c-0.6,0,-0.9,0.2,-0.9,0.6c0,0.5,0.3,0.6,1.6,1c1.5,0.3,2.4,0.9,2.4,2.1l0,0.1c0,1.4,-1.1,2.2,-2.8,2.2c-1.1,0,-2.3,-0.4,-3.2,-1.2Z" class="g2_1" />
<path d="M768.6,1062.8l-2.3,0l0,-1.4l6.2,0l0,1.4l-2.3,0l0,5.8l-1.6,0Z" class="g2_1" />
<path d="M773.8,1061.4l1.8,0l2,3l2,-3l1.8,0l0,7.2l-1.7,0l0,-4.7l-2.1,3.1l-0.1,0l-2.1,-3.1l0,4.7l-1.6,0Z" class="g2_1" />
<path d="M787.5,1065.6l-1,-2.4l-1,2.4Zm-1.7,-4.3l1.5,0l3.2,7.3l-1.7,0l-0.7,-1.6l-3.2,0l-0.7,1.6l-1.7,0Z" class="g2_1" />
<path d="M791.1,1067.5l1,-1.1c0.6,0.5,1.4,0.9,2.2,0.9c0.7,0,1.1,-0.3,1.1,-0.7c0,-0.4,-0.2,-0.6,-1.5,-0.9c-1.5,-0.4,-2.5,-0.8,-2.5,-2.2l0,-0.1c0,-1.3,1.1,-2.1,2.6,-2.1c1.1,0,2.1,0.3,2.8,0.9l-0.8,1.2c-0.7,-0.5,-1.4,-0.7,-2,-0.7c-0.6,0,-1,0.2,-1,0.6c0,0.5,0.4,0.6,1.7,1c1.5,0.3,2.4,0.9,2.4,2.1l0,0.1c0,1.4,-1.2,2.2,-2.8,2.2c-1.2,0,-2.3,-0.4,-3.2,-1.2Z" class="g2_1" />
<path d="M800.1,1062.8l-2.3,0l0,-1.4l6.3,0l0,1.4l-2.3,0l0,5.8l-1.7,0Z" class="g2_1" />
<path d="M805.4,1061.4l5.7,0l0,1.4l-4.1,0l0,1.4l3.6,0l0,1.5l-3.6,0l0,1.5l4.1,0l0,1.4l-5.7,0Z" class="g2_1" />
<path d="M815.9,1064.9c0.9,0,1.3,-0.4,1.3,-1l0,-0.1c0,-0.6,-0.5,-1,-1.3,-1l-1.6,0l0,2.1Zm-3.3,-3.5l3.5,0c0.9,0,1.7,0.2,2.2,0.7c0.4,0.4,0.6,1,0.6,1.7c0,1.1,-0.7,1.9,-1.6,2.2l1.8,2.6l-1.9,0l-1.6,-2.3l-1.3,0l0,2.3l-1.7,0Z" class="g2_1" />
<path d="M819.9,1067.5l1,-1.1c0.7,0.5,1.4,0.9,2.2,0.9c0.7,0,1.1,-0.3,1.1,-0.7c0,-0.4,-0.2,-0.6,-1.5,-0.9c-1.5,-0.4,-2.5,-0.8,-2.5,-2.2l0,-0.1c0,-1.3,1.1,-2.1,2.6,-2.1c1.1,0,2.1,0.3,2.8,0.9l-0.8,1.2c-0.7,-0.5,-1.3,-0.7,-2,-0.7c-0.6,0,-1,0.2,-1,0.6c0,0.5,0.4,0.6,1.7,1c1.5,0.3,2.4,0.9,2.4,2.1l0,0.1c0,1.4,-1.2,2.2,-2.8,2.2c-1.1,0,-2.3,-0.4,-3.2,-1.2Z" class="g2_1" />
</svg>