<?xml version="1.0" encoding="UTF-8" standalone="no"?>
<!DOCTYPE svg PUBLIC "-//W3C//DTD SVG 1.1//EN"
"http://www.w3.org/Graphics/SVG/1.1/DTD/svg11.dtd">
<svg viewBox="0 0 935 1210" version="1.1" xmlns="http://www.w3.org/2000/svg" xmlns:xlink="http://www.w3.org/1999/xlink">
<defs>
<clipPath id="c0_18"><path d="M0,1210L0,0L935,0l0,1210Z" /></clipPath>
<style type="text/css"><![CDATA[
.g1_18{
fill: #D1DDDF;
}
.g2_18{
fill: #FFFFFF;
}
.g3_18{
fill: #6186A4;
}
]]></style>
</defs>
<g clip-path="url(#c0_18)">
<path d="M-953.2,1228.3l953.2,0L0,-18.2l-953.2,0l0,1246.5Z" class="g1_18" />
</g>
<path d="M0,1210l935,0L935,0L0,0L0,1210Z" class="g1_18" />
<path d="M82.5,1129.3l770,0L852.5,110l-770,0l0,1019.3Z" class="g2_18" />
<path d="M103.2,310.3L73.5,286.6l-0.2,0l0,47.4Z" class="g3_18" />
<path d="M103.2,509.7L73.5,486l-0.2,0l0,47.4Z" class="g3_18" />
<path d="M103.2,728.9L73.5,705.1l-0.2,0l0,47.4Z" class="g3_18" />
</svg>