<?xml version="1.0" encoding="UTF-8" standalone="no"?>
<!DOCTYPE svg PUBLIC "-//W3C//DTD SVG 1.1//EN"
"http://www.w3.org/Graphics/SVG/1.1/DTD/svg11.dtd">
<svg viewBox="0 0 935 1210" version="1.1" xmlns="http://www.w3.org/2000/svg" xmlns:xlink="http://www.w3.org/1999/xlink">
<defs>
<clipPath id="c0_2"><path d="M635.2,1057.2l0,-84.9l102.4,0l0,84.9Z" /></clipPath>
<style type="text/css"><![CDATA[
.g1_2{
fill: #E2E7E8;
}
.g2_2{
fill: none;
stroke: #A6B9BB;
stroke-width: 3.0616667;
stroke-linecap: butt;
stroke-linejoin: miter;
stroke-miterlimit: 4;
}
.g3_2{
fill: none;
stroke: #A6B9BB;
stroke-width: 9.166667;
stroke-linecap: butt;
stroke-linejoin: miter;
stroke-miterlimit: 4;
}
.g4_2{
fill: #231F20;
}
.g5_2{
fill: #FFFFFF;
}
.g6_2{
fill: none;
stroke: #FFFFFF;
stroke-width: 0.15277778;
stroke-linecap: butt;
stroke-linejoin: miter;
stroke-miterlimit: 4;
}
.g7_2{
fill: none;
stroke: #B2B3B7;
stroke-width: 2.0044446;
stroke-linecap: butt;
stroke-linejoin: miter;
}
.g8_2{
fill: #57585A;
}
]]></style>
</defs>
<path d="M82.3,1127.5l770.2,0l0,-1016.6l-770.2,0l0,1016.6Z" class="g1_2" />
<image preserveAspectRatio="none" x="81" y="193" width="423" height="527" xlink:href="img/1.png" />
<path d="M517.9,110.9l0,1016.6" class="g2_2" />
<path d="M505.7,110.9l0,1016.6" class="g3_2" />
<g clip-path="url(#c0_2)">
<path d="M737.6,1003.4l-10.3,0c-4.9,-17.9,-21.4,-31.1,-40.9,-31.1c-19.5,0,-36,13.2,-40.9,31.1l-10.3,0l0,22.9l10.3,0c5.1,17.8,21.4,30.9,40.9,30.9c19.4,0,35.8,-13.1,40.8,-30.9l10.4,0Z" class="g4_2" />
</g>
<image x="645" y="973" width="83" height="83" xlink:href="shade/1.png" />
<g clip-path="url(#c0_2)">
<path d="M652.8,1034.3c-1,-1.7,-1.8,-3.5,-2.5,-5.3c1,0.9,2,1.6,3,2.2c2.1,1.3,4.2,2.4,6.4,3.4c0.1,0.1,0.1,0.2,0.1,0.3c1.3,4.3,3.3,8.4,6.1,11.7c0.8,1,1.8,1.9,2.8,2.8c-3.9,-2,-7.4,-4.6,-10.4,-7.7c-2.1,-2.2,-3.9,-4.7,-5.5,-7.4m61.4,4.9c-0.4,-0.7,-0.9,-1.3,-1.5,-1.8c-1.1,-1.1,-2.4,-2,-3.6,-2.8c-0.5,-0.3,-0.9,-0.6,-1.4,-0.8c1.1,-2.1,2.1,-4.2,2.9,-6.4c1.5,0.1,2.9,0.1,4.3,0.1c1.8,0,3.5,-0.1,5.2,-0.4c0.9,-0.2,1.7,-0.4,2.5,-0.7c0.4,-0.2,0.8,-0.4,1.2,-0.7c0,-0.1,0.1,-0.1,0.2,-0.2c-1.9,6.3,-5.2,11.8,-9.5,16.2c0,-0.1,0.1,-0.2,0.1,-0.3c0.2,-0.8,-0.1,-1.6,-0.4,-2.2m-25.5,13.2c4,-1.6,7.7,-4.2,10.8,-7.4c0.2,-0.1,0.4,-0.3,0.5,-0.5c2.2,0.1,4.3,0.2,6.4,0.1c1.5,-0.1,3.1,-0.3,4.6,-0.7c0.7,-0.2,1.4,-0.4,2,-0.7c-7.6,7,-17.9,10.9,-28.5,10.4c1.4,-0.3,2.8,-0.7,4.2,-1.2m-9.6,0.5c0.6,-0.2,1.2,-0.5,1.8,-0.9c1.3,-1,2.6,-2.2,3.7,-3.6c1.3,-1.7,2.5,-3.5,3.6,-5.3c3,0.5,6,0.9,9,1.2c0.8,0.1,1.6,0.1,2.4,0.2c-0.2,0.1,-0.3,0.2,-0.4,0.3c-3.2,3.1,-6.8,5.6,-10.8,7.1c-1.9,0.7,-4,1.1,-6,1.3c-0.5,0,-1.1,0,-1.7,0c-0.5,-0.1,-1.1,-0.2,-1.6,-0.3m-19.7,-31.7c2,0.1,4,0.2,6,0.4c2.3,0.2,4.6,0.5,6.9,0.9c-0.6,3.8,-1.1,7.7,-1.2,11.5c-0.1,1.2,-0.1,2.4,-0.1,3.6c-3,-1,-6,-2.2,-8.9,-3.5c-0.5,-0.2,-1,-0.4,-1.4,-0.7c-1,-3.9,-1.4,-8,-1.3,-12.2m-10.1,4.3c-0.4,-0.5,-0.5,-1.1,-0.4,-1.6c0.1,-0.5,0.6,-0.9,1.1,-1.2c0.6,-0.4,1.3,-0.6,2,-0.8c1.4,-0.3,2.9,-0.5,4.4,-0.6c0.5,0,1.1,0,1.7,0c-0.1,3.9,0.3,7.7,1.2,11.5c-1.8,-0.9,-3.5,-1.9,-5.2,-2.9c-1.2,-0.8,-2.5,-1.7,-3.5,-2.7c-0.5,-0.5,-1,-1.1,-1.3,-1.7M723.8,1003c-0.4,-0.6,-0.9,-1.2,-1.4,-1.8c-1.2,-1,-2.4,-1.9,-3.7,-2.8c-1.8,-1.1,-3.6,-2.1,-5.5,-3c-0.1,-0.4,-0.2,-0.7,-0.3,-1.1c-0.8,-3,-2,-6,-3.6,-8.6c0.2,-0.1,0.4,-0.2,0.6,-0.4c0.4,-0.2,0.7,-0.5,0.8,-0.9c0,-0.2,0,-0.5,0,-0.7c6.3,5,10.9,11.8,13.2,19.4c0,0,-0.1,0,-0.1,-0.1m0.6,20.3c-0.2,-0.4,-0.4,-0.8,-0.7,-1.1c-0.5,-0.7,-1.1,-1.3,-1.8,-1.9c-1.3,-1.1,-2.8,-2.1,-4.3,-2.9c-1.2,-0.8,-2.5,-1.4,-3.8,-2.1c0.4,-2.2,0.6,-4.5,0.7,-6.8c0.5,0,1,-0.1,1.6,-0.1c1.5,-0.1,3,-0.2,4.5,-0.6c0.8,-0.2,1.5,-0.5,2.2,-0.8c0.6,-0.4,1.3,-1,1.5,-1.8c0,-0.1,0,-0.3,0,-0.4c1.6,6,1.7,12.4,0.2,18.8c-0.1,-0.1,-0.1,-0.2,-0.1,-0.3m-11.8,-2c0.5,-1.9,0.9,-3.9,1.2,-5.9c1.2,0.6,2.4,1.2,3.6,1.9c1.5,0.8,2.9,1.8,4.3,2.9c0.6,0.5,1.3,1.1,1.8,1.8c0.2,0.4,0.5,0.7,0.6,1.2c0.2,0.4,0.2,0.8,0.1,1.2c-0.1,0.5,-0.4,0.8,-0.7,1.1c-0.3,0.3,-0.7,0.5,-1.1,0.7c-0.8,0.4,-1.7,0.6,-2.5,0.7c-1.7,0.3,-3.5,0.4,-5.2,0.4c-1.3,0,-2.7,0,-4,-0.1c0.7,-1.9,1.3,-3.9,1.9,-5.9m-8.2,5.2c-2.9,-0.4,-5.7,-0.9,-8.4,-1.4c0.8,-2.5,1.5,-5,2.2,-7.6c0.6,-2.5,1.2,-5,1.7,-7.5c2.8,0.8,5.4,1.8,8.1,2.8c1.9,0.8,3.7,1.6,5.6,2.5c-0.3,2,-0.7,4,-1.3,6c-0.5,2,-1.1,3.9,-1.9,5.9c-2,-0.2,-4,-0.4,-6,-0.7m-3.5,3.8c-1.9,-0.9,-3.9,-1.7,-5.9,-2.5c0.3,-0.7,0.5,-1.5,0.8,-2.2c2.9,0.5,5.8,0.9,8.7,1.3c2,0.2,3.9,0.4,5.9,0.5c-0.9,2.1,-1.8,4.2,-2.9,6.2c-2.1,-1.2,-4.3,-2.3,-6.6,-3.3m-27.1,-10.1c3.4,1,6.8,2,10.2,2.8c3.9,1,7.7,1.8,11.6,2.5c-0.3,0.8,-0.5,1.5,-0.8,2.2c-3.7,-1.4,-7.4,-2.6,-11.2,-3.6c-3.3,-0.9,-6.7,-1.8,-10,-2.4c0,-0.5,0.1,-1,0.2,-1.5m-2.8,-21c2.2,1,4.4,1.8,6.7,2.6c-0.2,0.4,-0.4,0.9,-0.5,1.4c-3,-0.6,-6,-1.1,-9.1,-1.6c-1.5,-0.2,-3.1,-0.4,-4.6,-0.5c0.6,-1.5,1.3,-3,2,-4.5c1.8,1,3.7,1.8,5.5,2.6m3.8,-13.8c3.2,0.3,6.4,0.7,9.6,1.3c-0.6,1,-1.1,2.1,-1.7,3.2c-1.7,3.4,-3.3,7,-4.6,10.7c-2.2,-0.8,-4.4,-1.7,-6.6,-2.7c-1.8,-0.8,-3.6,-1.7,-5.3,-2.6c0,-0.1,0,-0.1,0,-0.1c2,-3.6,4.4,-7,7.2,-10c0.4,0.1,0.9,0.1,1.4,0.2m6,-6.2c0.4,0.3,0.8,0.6,1.2,0.8c1.2,0.9,2.5,1.5,3.8,2.1c0.4,0.2,0.8,0.4,1.2,0.5c-0.5,0.8,-1,1.6,-1.5,2.4c-0.2,0.3,-0.4,0.6,-0.6,0.9c-3.2,-0.7,-6.5,-1.3,-9.9,-1.7c-0.2,0,-0.4,-0.1,-0.5,-0.1c1.9,-1.9,4,-3.6,6.3,-4.9m21.3,-0.4c1.7,1.1,3.2,2.5,4.6,4.1c0.7,0.9,1.4,1.8,2,2.8c-0.6,0.2,-1.3,0.3,-2,0.4c-1.5,0.1,-2.9,0,-4.3,-0.1c-0.2,0,-0.4,0,-0.6,-0.1c0,-0.6,-0.1,-1.2,-0.2,-1.9c-0.3,-1.7,-0.7,-3.4,-1.5,-4.9c-0.3,-0.7,-0.6,-1.2,-1.1,-1.7c0.6,0.1,1.1,0.3,1.6,0.5c0.5,0.3,1,0.6,1.5,0.9m8.4,15.3c-2.7,-1.2,-5.6,-2.3,-8.4,-3.4c0,-1.5,-0.1,-3,-0.2,-4.5c0.2,0,0.4,0,0.5,0c1.5,0.1,2.9,0.2,4.4,0c0.7,0,1.3,-0.2,2,-0.4c1.6,2.6,2.9,5.5,3.7,8.5c0.1,0.3,0.2,0.6,0.3,0.9c-0.8,-0.4,-1.5,-0.7,-2.3,-1.1m-10.1,13.2c2.2,0.4,4.3,0.6,6.4,0.8c2.5,0.3,4.9,0.4,7.4,0.4c-0.1,2.2,-0.3,4.5,-0.6,6.7c-1.8,-0.8,-3.5,-1.6,-5.3,-2.4c-2.8,-1.2,-5.5,-2.2,-8.3,-3.2c0.2,-0.7,0.3,-1.5,0.4,-2.3M694,984.8c2.4,0.6,4.9,1.1,7.4,1.3c0.1,1.1,0.2,2.3,0.3,3.4c0,0.4,0,0.7,0,1.1c-2.8,-1,-5.7,-1.9,-8.6,-2.7c-2.4,-0.7,-4.8,-1.3,-7.3,-1.8c0.7,-1.1,1.3,-2.2,2,-3.1c2,0.7,4.1,1.3,6.2,1.8m-4.9,-3.6c1.1,-1.4,2.3,-2.6,3.6,-3.5c0.6,-0.4,1.3,-0.8,2,-1c0.6,-0.2,1.3,-0.2,1.9,-0.1c1.3,0.3,2.3,1.4,3,2.8c0.7,1.4,1.2,3.1,1.5,4.8c0.1,0.5,0.2,1.1,0.3,1.7c-2.5,-0.3,-5,-0.9,-7.4,-1.6c-1.9,-0.5,-3.9,-1.2,-5.8,-1.9c0.3,-0.4,0.6,-0.8,0.9,-1.2m4.1,-5.3c0.4,0,0.7,0.1,1.1,0.2c-0.6,0.2,-1.2,0.5,-1.8,0.8c-1.4,0.9,-2.6,2.2,-3.8,3.6c-0.4,0.5,-0.8,1,-1.2,1.5c-0.5,-0.2,-1,-0.4,-1.4,-0.6c-1.3,-0.6,-2.6,-1.3,-3.7,-2.1c-0.3,-0.2,-0.6,-0.4,-0.8,-0.6c1,-0.5,2,-1,3,-1.4c1.9,-0.7,3.9,-1.2,6,-1.4c0.9,-0.1,1.7,-0.1,2.6,0m-7.8,11c2.5,0.5,4.9,1,7.4,1.6c3,0.8,6,1.6,8.9,2.5c0,1.4,0,2.7,-0.1,4.1c-0.2,3.9,-0.6,7.8,-1.3,11.7c-3.9,-0.8,-7.8,-1.7,-11.6,-2.8c-3.2,-0.9,-6.4,-1.9,-9.6,-3c0,-0.1,0,-0.2,0,-0.2c1.3,-3.6,2.7,-7,4.4,-10.4c0.6,-1.2,1.2,-2.4,1.9,-3.5m3.1,19.1c-3.4,-0.9,-6.8,-1.8,-10.3,-2.6c0.2,-0.4,0.3,-0.9,0.5,-1.3c3.3,1.1,6.6,2,9.9,2.9c3.9,0.9,7.7,1.7,11.6,2.3c-0.1,0.7,-0.2,1.5,-0.4,2.2c-3.7,-1.3,-7.5,-2.4,-11.3,-3.5m-12.7,5.6c0.6,-2.4,1.4,-4.8,2.1,-7.2c3.5,0.6,6.9,1.4,10.3,2.2c3.9,1,7.7,2.1,11.5,3.3c-0.5,2.5,-1.1,5.1,-1.7,7.6c-0.7,2.5,-1.4,5,-2.3,7.5c-3.9,-0.8,-7.7,-1.7,-11.6,-2.8c-3.4,-1,-6.7,-2,-10,-3.1c0.5,-2.5,1,-5,1.7,-7.5m38.4,-3.9c0,0.2,0,0.3,0,0.5c-2.5,0,-5,-0.2,-7.6,-0.5c-2,-0.2,-4,-0.5,-6.1,-0.9c0.1,-0.1,0.1,-0.3,0.1,-0.4c0.7,-3.8,1.2,-7.5,1.4,-11.3c0,-1.3,0.1,-2.6,0.1,-3.9c2.7,0.9,5.5,1.8,8.1,3c0.9,0.3,1.8,0.7,2.6,1.1c1,4,1.5,8.2,1.4,12.4m0.3,0c0.1,-4.1,-0.3,-8.2,-1.3,-12.2c1.8,0.9,3.5,1.8,5.2,2.8c1.3,0.8,2.6,1.7,3.7,2.8c0.5,0.5,1,1.1,1.4,1.7c0.4,0.7,0.7,1.5,0.5,2.3c-0.2,0.7,-0.8,1.3,-1.5,1.6c-0.7,0.4,-1.4,0.7,-2.2,0.9c-1.4,0.3,-3,0.5,-4.5,0.6c-0.4,0,-0.9,0,-1.3,0c0,-0.2,0,-0.3,0,-0.5m-4,-24.1c0.1,0.2,0.1,0.5,0.1,0.7c-0.2,0.4,-0.5,0.7,-0.8,0.9c-0.2,0.2,-0.4,0.3,-0.6,0.4c-0.6,-1.1,-1.3,-2.1,-2.1,-3c-0.9,-1.1,-1.9,-2.2,-3,-3.1c2.3,1.1,4.4,2.5,6.4,4.1m-29.8,-5.7c-0.2,-0.2,-0.4,-0.5,-0.6,-0.8c-0.1,-0.3,-0.2,-0.6,-0.1,-0.8c0,-0.2,0.2,-0.4,0.3,-0.6c2.6,-0.4,5.3,-0.5,7.9,-0.4c-1.3,0.2,-2.5,0.6,-3.8,1c-1.2,0.5,-2.4,1.1,-3.6,1.7l-0.1,-0.1m-19.4,29.9c0.5,-1.8,1,-3.7,1.7,-5.4c1.6,0.1,3.3,0.2,4.9,0.4c3,0.4,6,0.8,9,1.4c-0.8,2.3,-1.5,4.7,-2.2,7.2c-0.6,2.4,-1.2,4.8,-1.7,7.3c-2.8,-1,-5.7,-2.1,-8.4,-3.3c-1.5,-0.6,-3,-1.3,-4.5,-2c0.3,-1.9,0.7,-3.7,1.2,-5.6m-12.4,-3.3c0,0,0,-0.1,0.1,-0.2c0.2,-0.4,0.7,-0.8,1.3,-1c0.7,-0.3,1.5,-0.5,2.3,-0.7c1.6,-0.3,3.3,-0.4,5,-0.4c1.4,0,2.7,0,4,0.1c-0.6,1.7,-1.2,3.4,-1.6,5.2c-0.5,1.7,-0.9,3.5,-1.2,5.3c-1.2,-0.6,-2.3,-1.2,-3.5,-1.9c-1.4,-0.8,-2.9,-1.8,-4.2,-2.8c-0.6,-0.6,-1.2,-1.1,-1.7,-1.8c-0.3,-0.5,-0.6,-1.1,-0.6,-1.5c0,-0.1,0.1,-0.2,0.1,-0.3m10.5,15.4c0.1,-1.6,0.2,-3.3,0.5,-5c1.4,0.7,2.8,1.3,4.2,1.9c2.9,1.1,5.8,2.1,8.7,3.1c-0.1,0.5,-0.2,1,-0.3,1.5c-2.3,-0.4,-4.6,-0.7,-6.9,-1c-2.1,-0.3,-4.1,-0.4,-6.2,-0.5m19.8,20.3c-2.4,-0.7,-4.9,-1.4,-7.3,-2.3c0,-1.3,0,-2.7,0.1,-4c0.2,-3.7,0.7,-7.5,1.4,-11.2l0,-0.1c3.3,0.6,6.6,1.3,9.9,2.1c3.9,1,7.7,2.1,11.4,3.3c-1.3,3.7,-2.9,7.3,-4.6,10.8c-0.6,1.2,-1.3,2.4,-2,3.6c-3,-0.6,-5.9,-1.4,-8.9,-2.2m-2.6,12.2c-1.2,-0.4,-2.2,-1.5,-2.9,-2.9c-0.7,-1.4,-1.1,-3.1,-1.4,-4.8c-0.2,-1.8,-0.4,-3.7,-0.4,-5.6c2.4,0.8,4.8,1.4,7.2,2c2.9,0.7,5.8,1.4,8.7,1.9c-0.2,0.2,-0.3,0.4,-0.4,0.6c-1,1.6,-2,3.1,-3.2,4.4c-1.1,1.3,-2.3,2.6,-3.6,3.4c-0.6,0.4,-1.3,0.8,-2,0.9c-0.7,0.2,-1.4,0.2,-2,0.1m30.7,-18.3c-2.1,3.7,-4.6,7.1,-7.4,10.1c-1,-0.1,-1.9,-0.2,-2.8,-0.3c-2.9,-0.4,-5.8,-0.8,-8.6,-1.4c0.7,-1.2,1.3,-2.4,1.9,-3.6c1.7,-3.3,3.1,-6.8,4.4,-10.4c0,-0.1,0.1,-0.3,0.1,-0.4c1.9,0.7,3.9,1.4,5.8,2.2c2.3,1,4.6,2.1,6.8,3.4c-0.1,0.1,-0.2,0.2,-0.2,0.4m0.4,-0.3c0.4,0.2,0.7,0.4,1.1,0.7c1.3,0.8,2.5,1.7,3.6,2.7c0.6,0.6,1.1,1.1,1.5,1.8c0.4,0.6,0.6,1.4,0.4,2.2c-0.2,0.8,-0.8,1.3,-1.4,1.7c-0.7,0.4,-1.4,0.6,-2.2,0.8c-1.5,0.4,-3,0.5,-4.5,0.6c-2,0.1,-3.9,0,-5.9,-0.1c2.8,-3,5.2,-6.4,7.2,-10.1c0.1,-0.1,0.1,-0.2,0.2,-0.3m-32.1,-57c1.3,-0.4,2.5,-0.7,3.8,-0.9c0,0.1,-0.1,0.2,-0.1,0.2c-0.1,0.3,-0.1,0.6,0,0.8c0,0.3,0.1,0.5,0.2,0.7c0.2,0.3,0.4,0.6,0.6,0.8c-2.4,1.4,-4.7,3.1,-6.7,5.1c-0.2,0.2,-0.3,0.3,-0.5,0.5c-2.4,-0.3,-4.8,-0.4,-7.2,-0.3c-1.2,0.1,-2.5,0.2,-3.8,0.5c1.6,-1.4,3.3,-2.6,5.1,-3.6c2.7,-1.6,5.6,-2.9,8.6,-3.8m-16.3,9.7c0,0,0.1,0,0.1,0c0.6,-0.4,1.3,-0.6,2,-0.8c1.4,-0.4,2.9,-0.5,4.4,-0.6c2,-0.1,4,-0.1,6,0c-2.6,2.8,-4.8,6,-6.7,9.4c0,0,0,0.1,0,0.1c-0.6,-0.3,-1.1,-0.6,-1.6,-0.9C662.2,992.8,661,992,660,991c-0.5,-0.6,-1,-1.1,-1.3,-1.7c-0.4,-0.5,-0.6,-1.1,-0.4,-1.6c0,-0.1,0,-0.1,0.1,-0.2c0.3,-0.3,0.6,-0.7,0.9,-1m-2.4,2.7c0.1,0.4,0.2,0.7,0.4,1c0.5,0.8,1,1.4,1.6,2c1.2,1.1,2.5,2,3.8,2.8c0.6,0.4,1.1,0.7,1.6,1c-0.8,1.6,-1.5,3.3,-2.2,5c-1.5,-0.1,-3,-0.2,-4.5,-0.2c-1.7,0,-3.5,0.1,-5.3,0.4c-0.9,0.2,-1.8,0.4,-2.6,0.8c1.3,-4,3.3,-7.8,5.9,-11.2c0.4,-0.6,0.8,-1.1,1.3,-1.6m-9,30.6c-0.5,-4.1,-0.4,-8.4,0.3,-12.4c0.6,0.7,1.3,1.3,2,1.9c1.4,1.2,2.9,2.1,4.4,3c1.3,0.7,2.6,1.4,4,2.1c-0.3,1.8,-0.4,3.7,-0.5,5.5c-0.6,0,-1.2,0,-1.8,0c-1.5,0.1,-3.1,0.3,-4.7,0.7c-0.8,0.2,-1.6,0.4,-2.3,0.9c-0.4,0.2,-0.7,0.4,-1,0.7c-0.2,-0.8,-0.3,-1.6,-0.4,-2.4M671,1050c-1.7,-1.1,-3.2,-2.6,-4.5,-4.2c-2.5,-3,-4.2,-6.7,-5.4,-10.6c0.2,0.1,0.4,0.2,0.5,0.2c3.1,1.3,6.2,2.5,9.4,3.5c0,0.2,0,0.5,0,0.7c0.1,1.9,0.3,3.7,0.6,5.5c0.4,1.8,0.8,3.5,1.6,5c0.3,0.6,0.7,1.1,1.1,1.6c-0.3,-0.1,-0.7,-0.2,-1,-0.4c-0.8,-0.4,-1.6,-0.8,-2.3,-1.3m25.8,-74.9c-21.7,-5.7,-44,7.2,-49.8,28.9c-5.7,21.7,7.3,44,29,49.8c21.7,5.7,44,-7.3,49.7,-29c5.8,-21.7,-7.2,-44,-28.9,-49.7Z" class="g5_2" />
<path d="M652.8,1034.3c-1,-1.7,-1.8,-3.5,-2.5,-5.3c1,0.9,2,1.6,3,2.2c2.1,1.3,4.2,2.4,6.4,3.4c0.1,0.1,0.1,0.2,0.1,0.3c1.3,4.3,3.3,8.4,6.1,11.7c0.8,1,1.8,1.9,2.8,2.8c-3.9,-2,-7.4,-4.6,-10.4,-7.7c-2.1,-2.2,-3.9,-4.7,-5.5,-7.4Zm61.4,4.9c-0.4,-0.7,-0.9,-1.3,-1.5,-1.8c-1.1,-1.1,-2.4,-2,-3.6,-2.8c-0.5,-0.3,-0.9,-0.6,-1.4,-0.8c1.1,-2.1,2.1,-4.2,2.9,-6.4c1.5,0.1,2.9,0.1,4.3,0.1c1.8,0,3.5,-0.1,5.2,-0.4c0.9,-0.2,1.7,-0.4,2.5,-0.7c0.4,-0.2,0.8,-0.4,1.2,-0.7c0,-0.1,0.1,-0.1,0.2,-0.2c-1.9,6.3,-5.2,11.8,-9.5,16.2c0,-0.1,0.1,-0.2,0.1,-0.3c0.2,-0.8,-0.1,-1.6,-0.4,-2.2Zm-25.5,13.2c4,-1.6,7.7,-4.2,10.8,-7.4c0.2,-0.1,0.4,-0.3,0.5,-0.5c2.2,0.1,4.3,0.2,6.4,0.1c1.5,-0.1,3.1,-0.3,4.6,-0.7c0.7,-0.2,1.4,-0.4,2,-0.7c-7.6,7,-17.9,10.9,-28.5,10.4c1.4,-0.3,2.8,-0.7,4.2,-1.2Zm-9.6,0.5c0.6,-0.2,1.2,-0.5,1.8,-0.9c1.3,-1,2.6,-2.2,3.7,-3.6c1.3,-1.7,2.5,-3.5,3.6,-5.3c3,0.5,6,0.9,9,1.2c0.8,0.1,1.6,0.1,2.4,0.2c-0.2,0.1,-0.3,0.2,-0.4,0.3c-3.2,3.1,-6.8,5.6,-10.8,7.1c-1.9,0.7,-4,1.1,-6,1.3c-0.5,0,-1.1,0,-1.7,0c-0.5,-0.1,-1.1,-0.2,-1.6,-0.3Zm-19.7,-31.7c2,0.1,4,0.2,6,0.4c2.3,0.2,4.6,0.5,6.9,0.9c-0.6,3.8,-1.1,7.7,-1.2,11.5c-0.1,1.2,-0.1,2.4,-0.1,3.6c-3,-1,-6,-2.2,-8.9,-3.5c-0.5,-0.2,-1,-0.4,-1.4,-0.7c-1,-3.9,-1.4,-8,-1.3,-12.2Zm-10.1,4.3c-0.4,-0.5,-0.5,-1.1,-0.4,-1.6c0.1,-0.5,0.6,-0.9,1.1,-1.2c0.6,-0.4,1.3,-0.6,2,-0.8c1.4,-0.3,2.9,-0.5,4.4,-0.6c0.5,0,1.1,0,1.7,0c-0.1,3.9,0.3,7.7,1.2,11.5c-1.8,-0.9,-3.5,-1.9,-5.2,-2.9c-1.2,-0.8,-2.5,-1.7,-3.5,-2.7c-0.5,-0.5,-1,-1.1,-1.3,-1.7ZM723.8,1003c-0.4,-0.6,-0.9,-1.2,-1.4,-1.8c-1.2,-1,-2.4,-1.9,-3.7,-2.8c-1.8,-1.1,-3.6,-2.1,-5.5,-3c-0.1,-0.4,-0.2,-0.7,-0.3,-1.1c-0.8,-3,-2,-6,-3.6,-8.6c0.2,-0.1,0.4,-0.2,0.6,-0.4c0.4,-0.2,0.7,-0.5,0.8,-0.9c0,-0.2,0,-0.5,0,-0.7c6.3,5,10.9,11.8,13.2,19.4c0,0,-0.1,0,-0.1,-0.1Zm0.6,20.3c-0.2,-0.4,-0.4,-0.8,-0.7,-1.1c-0.5,-0.7,-1.1,-1.3,-1.8,-1.9c-1.3,-1.1,-2.8,-2.1,-4.3,-2.9c-1.2,-0.8,-2.5,-1.4,-3.8,-2.1c0.4,-2.2,0.6,-4.5,0.7,-6.8c0.5,0,1,-0.1,1.6,-0.1c1.5,-0.1,3,-0.2,4.5,-0.6c0.8,-0.2,1.5,-0.5,2.2,-0.8c0.6,-0.4,1.3,-1,1.5,-1.8c0,-0.1,0,-0.3,0,-0.4c1.6,6,1.7,12.4,0.2,18.8c-0.1,-0.1,-0.1,-0.2,-0.1,-0.3Zm-11.8,-2c0.5,-1.9,0.9,-3.9,1.2,-5.9c1.2,0.6,2.4,1.2,3.6,1.9c1.5,0.8,2.9,1.8,4.3,2.9c0.6,0.5,1.3,1.1,1.8,1.8c0.2,0.4,0.5,0.7,0.6,1.2c0.2,0.4,0.2,0.8,0.1,1.2c-0.1,0.5,-0.4,0.8,-0.7,1.1c-0.3,0.3,-0.7,0.5,-1.1,0.7c-0.8,0.4,-1.7,0.6,-2.5,0.7c-1.7,0.3,-3.5,0.4,-5.2,0.4c-1.3,0,-2.7,0,-4,-0.1c0.7,-1.9,1.3,-3.9,1.9,-5.9Zm-8.2,5.2c-2.9,-0.4,-5.7,-0.9,-8.4,-1.4c0.8,-2.5,1.5,-5,2.2,-7.6c0.6,-2.5,1.2,-5,1.7,-7.5c2.8,0.8,5.4,1.8,8.1,2.8c1.9,0.8,3.7,1.6,5.6,2.5c-0.3,2,-0.7,4,-1.3,6c-0.5,2,-1.1,3.9,-1.9,5.9c-2,-0.2,-4,-0.4,-6,-0.7Zm-3.5,3.8c-1.9,-0.9,-3.9,-1.7,-5.9,-2.5c0.3,-0.7,0.5,-1.5,0.8,-2.2c2.9,0.5,5.8,0.9,8.7,1.3c2,0.2,3.9,0.4,5.9,0.5c-0.9,2.1,-1.8,4.2,-2.9,6.2c-2.1,-1.2,-4.3,-2.3,-6.6,-3.3Zm-27.1,-10.1c3.4,1,6.8,2,10.2,2.8c3.9,1,7.7,1.8,11.6,2.5c-0.3,0.8,-0.5,1.5,-0.8,2.2c-3.7,-1.4,-7.4,-2.6,-11.2,-3.6c-3.3,-0.9,-6.7,-1.8,-10,-2.4c0,-0.5,0.1,-1,0.2,-1.5Zm-2.8,-21c2.2,1,4.4,1.8,6.7,2.6c-0.2,0.4,-0.4,0.9,-0.5,1.4c-3,-0.6,-6,-1.1,-9.1,-1.6c-1.5,-0.2,-3.1,-0.4,-4.6,-0.5c0.6,-1.5,1.3,-3,2,-4.5c1.8,1,3.7,1.8,5.5,2.6Zm3.8,-13.8c3.2,0.3,6.4,0.7,9.6,1.3c-0.6,1,-1.1,2.1,-1.7,3.2c-1.7,3.4,-3.3,7,-4.6,10.7c-2.2,-0.8,-4.4,-1.7,-6.6,-2.7c-1.8,-0.8,-3.6,-1.7,-5.3,-2.6c0,-0.1,0,-0.1,0,-0.1c2,-3.6,4.4,-7,7.2,-10c0.4,0.1,0.9,0.1,1.4,0.2Zm6,-6.2c0.4,0.3,0.8,0.6,1.2,0.8c1.2,0.9,2.5,1.5,3.8,2.1c0.4,0.2,0.8,0.4,1.2,0.5c-0.5,0.8,-1,1.6,-1.5,2.4c-0.2,0.3,-0.4,0.6,-0.6,0.9c-3.2,-0.7,-6.5,-1.3,-9.9,-1.7c-0.2,0,-0.4,-0.1,-0.5,-0.1c1.9,-1.9,4,-3.6,6.3,-4.9Zm21.3,-0.4c1.7,1.1,3.2,2.5,4.6,4.1c0.7,0.9,1.4,1.8,2,2.8c-0.6,0.2,-1.3,0.3,-2,0.4c-1.5,0.1,-2.9,0,-4.3,-0.1c-0.2,0,-0.4,0,-0.6,-0.1c0,-0.6,-0.1,-1.2,-0.2,-1.9c-0.3,-1.7,-0.7,-3.4,-1.5,-4.9c-0.3,-0.7,-0.6,-1.2,-1.1,-1.7c0.6,0.1,1.1,0.3,1.6,0.5c0.5,0.3,1,0.6,1.5,0.9Zm8.4,15.3c-2.7,-1.2,-5.6,-2.3,-8.4,-3.4c0,-1.5,-0.1,-3,-0.2,-4.5c0.2,0,0.4,0,0.5,0c1.5,0.1,2.9,0.2,4.4,0c0.7,0,1.3,-0.2,2,-0.4c1.6,2.6,2.9,5.5,3.7,8.5c0.1,0.3,0.2,0.6,0.3,0.9c-0.8,-0.4,-1.5,-0.7,-2.3,-1.1Zm-10.1,13.2c2.2,0.4,4.3,0.6,6.4,0.8c2.5,0.3,4.9,0.4,7.4,0.4c-0.1,2.2,-0.3,4.5,-0.6,6.7c-1.8,-0.8,-3.5,-1.6,-5.3,-2.4c-2.8,-1.2,-5.5,-2.2,-8.3,-3.2c0.2,-0.7,0.3,-1.5,0.4,-2.3ZM694,984.8c2.4,0.6,4.9,1.1,7.4,1.3c0.1,1.1,0.2,2.3,0.3,3.4c0,0.4,0,0.7,0,1.1c-2.8,-1,-5.7,-1.9,-8.6,-2.7c-2.4,-0.7,-4.8,-1.3,-7.3,-1.8c0.7,-1.1,1.3,-2.2,2,-3.1c2,0.7,4.1,1.3,6.2,1.8Zm-4.9,-3.6c1.1,-1.4,2.3,-2.6,3.6,-3.5c0.6,-0.4,1.3,-0.8,2,-1c0.6,-0.2,1.3,-0.2,1.9,-0.1c1.3,0.3,2.3,1.4,3,2.8c0.7,1.4,1.2,3.1,1.5,4.8c0.1,0.5,0.2,1.1,0.3,1.7c-2.5,-0.3,-5,-0.9,-7.4,-1.6c-1.9,-0.5,-3.9,-1.2,-5.8,-1.9c0.3,-0.4,0.6,-0.8,0.9,-1.2Zm4.1,-5.3c0.4,0,0.7,0.1,1.1,0.2c-0.6,0.2,-1.2,0.5,-1.8,0.8c-1.4,0.9,-2.6,2.2,-3.8,3.6c-0.4,0.5,-0.8,1,-1.2,1.5c-0.5,-0.2,-1,-0.4,-1.4,-0.6c-1.3,-0.6,-2.6,-1.3,-3.7,-2.1c-0.3,-0.2,-0.6,-0.4,-0.8,-0.6c1,-0.5,2,-1,3,-1.4c1.9,-0.7,3.9,-1.2,6,-1.4c0.9,-0.1,1.7,-0.1,2.6,0Zm-7.8,11c2.5,0.5,4.9,1,7.4,1.6c3,0.8,6,1.6,8.9,2.5c0,1.4,0,2.7,-0.1,4.1c-0.2,3.9,-0.6,7.8,-1.3,11.7c-3.9,-0.8,-7.8,-1.7,-11.6,-2.8c-3.2,-0.9,-6.4,-1.9,-9.6,-3c0,-0.1,0,-0.2,0,-0.2c1.3,-3.6,2.7,-7,4.4,-10.4c0.6,-1.2,1.2,-2.4,1.9,-3.5Zm3.1,19.1c-3.4,-0.9,-6.8,-1.8,-10.3,-2.6c0.2,-0.4,0.3,-0.9,0.5,-1.3c3.3,1.1,6.6,2,9.9,2.9c3.9,0.9,7.7,1.7,11.6,2.3c-0.1,0.7,-0.2,1.5,-0.4,2.2c-3.7,-1.3,-7.5,-2.4,-11.3,-3.5Zm-12.7,5.6c0.6,-2.4,1.4,-4.8,2.1,-7.2c3.5,0.6,6.9,1.4,10.3,2.2c3.9,1,7.7,2.1,11.5,3.3c-0.5,2.5,-1.1,5.1,-1.7,7.6c-0.7,2.5,-1.4,5,-2.3,7.5c-3.9,-0.8,-7.7,-1.7,-11.6,-2.8c-3.4,-1,-6.7,-2,-10,-3.1c0.5,-2.5,1,-5,1.7,-7.5Zm38.4,-3.9c0,0.2,0,0.3,0,0.5c-2.5,0,-5,-0.2,-7.6,-0.5c-2,-0.2,-4,-0.5,-6.1,-0.9c0.1,-0.1,0.1,-0.3,0.1,-0.4c0.7,-3.8,1.2,-7.5,1.4,-11.3c0,-1.3,0.1,-2.6,0.1,-3.9c2.7,0.9,5.5,1.8,8.1,3c0.9,0.3,1.8,0.7,2.6,1.1c1,4,1.5,8.2,1.4,12.4Zm0.3,0c0.1,-4.1,-0.3,-8.2,-1.3,-12.2c1.8,0.9,3.5,1.8,5.2,2.8c1.3,0.8,2.6,1.7,3.7,2.8c0.5,0.5,1,1.1,1.4,1.7c0.4,0.7,0.7,1.5,0.5,2.3c-0.2,0.7,-0.8,1.3,-1.5,1.6c-0.7,0.4,-1.4,0.7,-2.2,0.9c-1.4,0.3,-3,0.5,-4.5,0.6c-0.4,0,-0.9,0,-1.3,0c0,-0.2,0,-0.3,0,-0.5Zm-4,-24.1c0.1,0.2,0.1,0.5,0.1,0.7c-0.2,0.4,-0.5,0.7,-0.8,0.9c-0.2,0.2,-0.4,0.3,-0.6,0.4c-0.6,-1.1,-1.3,-2.1,-2.1,-3c-0.9,-1.1,-1.9,-2.2,-3,-3.1c2.3,1.1,4.4,2.5,6.4,4.1Zm-29.8,-5.7c-0.2,-0.2,-0.4,-0.5,-0.6,-0.8c-0.1,-0.3,-0.2,-0.6,-0.1,-0.8c0,-0.2,0.2,-0.4,0.3,-0.6c2.6,-0.4,5.3,-0.5,7.9,-0.4c-1.3,0.2,-2.5,0.6,-3.8,1c-1.2,0.5,-2.4,1.1,-3.6,1.7l-0.1,-0.1Zm-19.4,29.9c0.5,-1.8,1,-3.7,1.7,-5.4c1.6,0.1,3.3,0.2,4.9,0.4c3,0.4,6,0.8,9,1.4c-0.8,2.3,-1.5,4.7,-2.2,7.2c-0.6,2.4,-1.2,4.8,-1.7,7.3c-2.8,-1,-5.7,-2.1,-8.4,-3.3c-1.5,-0.6,-3,-1.3,-4.5,-2c0.3,-1.9,0.7,-3.7,1.2,-5.6Zm-12.4,-3.3c0,0,0,-0.1,0.1,-0.2c0.2,-0.4,0.7,-0.8,1.3,-1c0.7,-0.3,1.5,-0.5,2.3,-0.7c1.6,-0.3,3.3,-0.4,5,-0.4c1.4,0,2.7,0,4,0.1c-0.6,1.7,-1.2,3.4,-1.6,5.2c-0.5,1.7,-0.9,3.5,-1.2,5.3c-1.2,-0.6,-2.3,-1.2,-3.5,-1.9c-1.4,-0.8,-2.9,-1.8,-4.2,-2.8c-0.6,-0.6,-1.2,-1.1,-1.7,-1.8c-0.3,-0.5,-0.6,-1.1,-0.6,-1.5c0,-0.1,0.1,-0.2,0.1,-0.3Zm10.5,15.4c0.1,-1.6,0.2,-3.3,0.5,-5c1.4,0.7,2.8,1.3,4.2,1.9c2.9,1.1,5.8,2.1,8.7,3.1c-0.1,0.5,-0.2,1,-0.3,1.5c-2.3,-0.4,-4.6,-0.7,-6.9,-1c-2.1,-0.3,-4.1,-0.4,-6.2,-0.5Zm19.8,20.3c-2.4,-0.7,-4.9,-1.4,-7.3,-2.3c0,-1.3,0,-2.7,0.1,-4c0.2,-3.7,0.7,-7.5,1.4,-11.2l0,-0.1c3.3,0.6,6.6,1.3,9.9,2.1c3.9,1,7.7,2.1,11.4,3.3c-1.3,3.7,-2.9,7.3,-4.6,10.8c-0.6,1.2,-1.3,2.4,-2,3.6c-3,-0.6,-5.9,-1.4,-8.9,-2.2Zm-2.6,12.2c-1.2,-0.4,-2.2,-1.5,-2.9,-2.9c-0.7,-1.4,-1.1,-3.1,-1.4,-4.8c-0.2,-1.8,-0.4,-3.7,-0.4,-5.6c2.4,0.8,4.8,1.4,7.2,2c2.9,0.7,5.8,1.4,8.7,1.9c-0.2,0.2,-0.3,0.4,-0.4,0.6c-1,1.6,-2,3.1,-3.2,4.4c-1.1,1.3,-2.3,2.6,-3.6,3.4c-0.6,0.4,-1.3,0.8,-2,0.9c-0.7,0.2,-1.4,0.2,-2,0.1Zm30.7,-18.3c-2.1,3.7,-4.6,7.1,-7.4,10.1c-1,-0.1,-1.9,-0.2,-2.8,-0.3c-2.9,-0.4,-5.8,-0.8,-8.6,-1.4c0.7,-1.2,1.3,-2.4,1.9,-3.6c1.7,-3.3,3.1,-6.8,4.4,-10.4c0,-0.1,0.1,-0.3,0.1,-0.4c1.9,0.7,3.9,1.4,5.8,2.2c2.3,1,4.6,2.1,6.8,3.4c-0.1,0.1,-0.2,0.2,-0.2,0.4Zm0.4,-0.3c0.4,0.2,0.7,0.4,1.1,0.7c1.3,0.8,2.5,1.7,3.6,2.7c0.6,0.6,1.1,1.1,1.5,1.8c0.4,0.6,0.6,1.4,0.4,2.2c-0.2,0.8,-0.8,1.3,-1.4,1.7c-0.7,0.4,-1.4,0.6,-2.2,0.8c-1.5,0.4,-3,0.5,-4.5,0.6c-2,0.1,-3.9,0,-5.9,-0.1c2.8,-3,5.2,-6.4,7.2,-10.1c0.1,-0.1,0.1,-0.2,0.2,-0.3Zm-32.1,-57c1.3,-0.4,2.5,-0.7,3.8,-0.9c0,0.1,-0.1,0.2,-0.1,0.2c-0.1,0.3,-0.1,0.6,0,0.8c0,0.3,0.1,0.5,0.2,0.7c0.2,0.3,0.4,0.6,0.6,0.8c-2.4,1.4,-4.7,3.1,-6.7,5.1c-0.2,0.2,-0.3,0.3,-0.5,0.5c-2.4,-0.3,-4.8,-0.4,-7.2,-0.3c-1.2,0.1,-2.5,0.2,-3.8,0.5c1.6,-1.4,3.3,-2.6,5.1,-3.6c2.7,-1.6,5.6,-2.9,8.6,-3.8Zm-16.3,9.7c0,0,0.1,0,0.1,0c0.6,-0.4,1.3,-0.6,2,-0.8c1.4,-0.4,2.9,-0.5,4.4,-0.6c2,-0.1,4,-0.1,6,0c-2.6,2.8,-4.8,6,-6.7,9.4c0,0,0,0.1,0,0.1c-0.6,-0.3,-1.1,-0.6,-1.6,-0.9C662.2,992.8,661,992,660,991c-0.5,-0.6,-1,-1.1,-1.3,-1.7c-0.4,-0.5,-0.6,-1.1,-0.4,-1.6c0,-0.1,0,-0.1,0.1,-0.2c0.3,-0.3,0.6,-0.7,0.9,-1Zm-2.4,2.7c0.1,0.4,0.2,0.7,0.4,1c0.5,0.8,1,1.4,1.6,2c1.2,1.1,2.5,2,3.8,2.8c0.6,0.4,1.1,0.7,1.6,1c-0.8,1.6,-1.5,3.3,-2.2,5c-1.5,-0.1,-3,-0.2,-4.5,-0.2c-1.7,0,-3.5,0.1,-5.3,0.4c-0.9,0.2,-1.8,0.4,-2.6,0.8c1.3,-4,3.3,-7.8,5.9,-11.2c0.4,-0.6,0.8,-1.1,1.3,-1.6Zm-9,30.6c-0.5,-4.1,-0.4,-8.4,0.3,-12.4c0.6,0.7,1.3,1.3,2,1.9c1.4,1.2,2.9,2.1,4.4,3c1.3,0.7,2.6,1.4,4,2.1c-0.3,1.8,-0.4,3.7,-0.5,5.5c-0.6,0,-1.2,0,-1.8,0c-1.5,0.1,-3.1,0.3,-4.7,0.7c-0.8,0.2,-1.6,0.4,-2.3,0.9c-0.4,0.2,-0.7,0.4,-1,0.7c-0.2,-0.8,-0.3,-1.6,-0.4,-2.4ZM671,1050c-1.7,-1.1,-3.2,-2.6,-4.5,-4.2c-2.5,-3,-4.2,-6.7,-5.4,-10.6c0.2,0.1,0.4,0.2,0.5,0.2c3.1,1.3,6.2,2.5,9.4,3.5c0,0.2,0,0.5,0,0.7c0.1,1.9,0.3,3.7,0.6,5.5c0.4,1.8,0.8,3.5,1.6,5c0.3,0.6,0.7,1.1,1.1,1.6c-0.3,-0.1,-0.7,-0.2,-1,-0.4c-0.8,-0.4,-1.6,-0.8,-2.3,-1.3Zm25.8,-74.9c-21.7,-5.7,-44,7.2,-49.8,28.9c-5.7,21.7,7.3,44,29,49.8c21.7,5.7,44,-7.3,49.7,-29c5.8,-21.7,-7.2,-44,-28.9,-49.7Z" class="g6_2" />
<path d="M696.6,975.8c-21.2,-5.6,-43,7.2,-48.7,28.5c-5.6,21.3,7.1,43.2,28.3,48.8c21.3,5.6,43.1,-7.2,48.7,-28.5c5.6,-21.3,-7,-43.2,-28.3,-48.8Z" class="g7_2" />
</g>
<path d="M636.8,1024.7l99.2,0l0,-19.7l-99.2,0l0,19.7Z" class="g5_2" />
<path d="M642.4,1009.3l-2.4,0l0,-1.5l6.5,0l0,1.5l-2.4,0l0,5.9l-1.7,0Z" class="g4_2" />
<path d="M653.6,1011.5l0,0c0,-1.3,-1,-2.4,-2.4,-2.4c-1.4,0,-2.3,1.1,-2.3,2.4c0,1.2,1,2.3,2.3,2.3c1.4,0,2.4,-1,2.4,-2.3m-6.5,0l0,0c0,-2.1,1.7,-3.9,4.1,-3.9c2.4,0,4.2,1.7,4.2,3.9c0,2.1,-1.8,3.8,-4.2,3.8c-2.4,0,-4.1,-1.7,-4.1,-3.8Z" class="g4_2" />
<path d="M660.9,1012.1l-1.1,-2.4l-1,2.4Zm-1.8,-4.4l1.5,0l3.4,7.5l-1.8,0l-0.7,-1.7l-3.3,0l-0.7,1.7l-1.8,0Z" class="g4_2" />
<path d="M664.5,1014.1l1,-1.2c0.7,0.6,1.5,0.9,2.4,0.9c0.7,0,1.1,-0.2,1.1,-0.7c0,-0.4,-0.3,-0.6,-1.6,-0.9c-1.5,-0.4,-2.6,-0.8,-2.6,-2.3c0,-1.4,1.2,-2.2,2.8,-2.2c1.1,0,2.1,0.3,2.9,0.9l-0.9,1.2c-0.7,-0.4,-1.4,-0.7,-2.1,-0.7c-0.6,0,-1,0.3,-1,0.6l0,0.1c0,0.5,0.4,0.6,1.7,0.9c1.6,0.4,2.5,1,2.5,2.3c0,1.5,-1.2,2.3,-2.9,2.3c-1.1,0,-2.3,-0.4,-3.3,-1.2Z" class="g4_2" />
<path d="M673.8,1009.3l-2.3,0l0,-1.5l6.4,0l0,1.5l-2.4,0l0,5.9l-1.7,0Z" class="g4_2" />
<path d="M679.2,1007.8l1.9,0l2,3.1l2.1,-3.1l1.8,0l0,7.4l-1.7,0l0,-4.9l-2.2,3.2l-2.2,-3.1l0,4.8l-1.7,0Z" class="g4_2" />
<path d="M693.3,1012.1l-1,-2.4l-1,2.4Zm-1.8,-4.4l1.6,0l3.3,7.5l-1.7,0l-0.8,-1.7l-3.2,0l-0.8,1.7l-1.7,0Z" class="g4_2" />
<path d="M697,1014.1l1,-1.2c0.7,0.6,1.4,0.9,2.3,0.9c0.7,0,1.2,-0.2,1.2,-0.7c0,-0.4,-0.3,-0.6,-1.6,-0.9c-1.6,-0.4,-2.6,-0.8,-2.6,-2.3c0,-1.4,1.1,-2.2,2.7,-2.2c1.2,0,2.1,0.3,2.9,0.9l-0.9,1.2c-0.7,-0.4,-1.3,-0.7,-2,-0.7c-0.6,0,-1,0.3,-1,0.6l0,0.1c0,0.5,0.3,0.6,1.7,0.9c1.6,0.4,2.5,1,2.5,2.3c0,1.5,-1.2,2.3,-2.9,2.3c-1.2,0,-2.4,-0.4,-3.3,-1.2Z" class="g4_2" />
<path d="M706.3,1009.3l-2.4,0l0,-1.5l6.5,0l0,1.5l-2.4,0l0,5.9l-1.7,0Z" class="g4_2" />
<path d="M711.7,1007.8l5.9,0l0,1.4l-4.2,0l0,1.5l3.7,0l0,1.5l-3.7,0l0,1.5l4.2,0l0,1.5l-5.9,0Z" class="g4_2" />
<path d="M722.6,1011.4c0.8,0,1.3,-0.5,1.3,-1.1c0,-0.7,-0.5,-1.1,-1.4,-1.1l-1.7,0l0,2.2Zm-3.5,-3.6l3.6,0c1,0,1.7,0.2,2.3,0.7c0.4,0.4,0.6,1,0.6,1.7c0,1.2,-0.7,2,-1.6,2.3l1.9,2.7l-2,0l-1.7,-2.4l-1.4,0l0,2.4l-1.7,0Z" class="g4_2" />
<path d="M726.6,1014.1l1,-1.2c0.7,0.6,1.5,0.9,2.4,0.9c0.7,0,1.1,-0.2,1.1,-0.7c0,-0.4,-0.3,-0.6,-1.6,-0.9c-1.5,-0.4,-2.6,-0.8,-2.6,-2.3c0,-1.4,1.2,-2.2,2.8,-2.2c1.1,0,2.1,0.3,2.9,0.9l-0.9,1.2c-0.7,-0.4,-1.4,-0.7,-2.1,-0.7c-0.6,0,-1,0.3,-1,0.6l0,0.1c0,0.5,0.4,0.6,1.7,0.9c1.6,0.4,2.5,1,2.5,2.3c0,1.5,-1.2,2.3,-2.9,2.3c-1.1,0,-2.3,-0.4,-3.3,-1.2Z" class="g4_2" />
<path d="M721.6,1017.6c0.1,0,0.1,-0.1,0.1,-0.1c0,-0.1,0,-0.1,-0.1,-0.1l-0.1,0l0,0.2Zm-0.2,-0.3l0.3,0c0.1,0,0.1,0.1,0.1,0.2c0,0,0,0.1,-0.1,0.1l0.2,0.2l-0.2,0l-0.1,-0.2l-0.1,0l0,0.2l-0.1,0Zm0.7,0.3l0,0c0,-0.3,-0.2,-0.5,-0.5,-0.5c-0.2,0,-0.4,0.2,-0.4,0.5c0,0.2,0.2,0.4,0.4,0.4c0.3,0,0.5,-0.2,0.5,-0.4m-1,0l0,0c0,-0.3,0.2,-0.5,0.5,-0.5c0.3,0,0.5,0.2,0.5,0.5c0,0.2,-0.2,0.5,-0.5,0.5c-0.3,0,-0.5,-0.3,-0.5,-0.5Z" class="g8_2" />
<path d="M650.5,1017l0.6,0l0,4.9l-0.6,0Z" class="g8_2" />
<path d="M653.6,1017l0.5,0l3,3.9l0,-3.9l0.6,0l0,4.9l-0.4,0l-3.2,-4l0,4l-0.5,0Z" class="g8_2" />
<path d="M661.4,1017.5l-1.6,0l0,-0.5l3.8,0l0,0.5l-1.6,0l0,4.4l-0.6,0Z" class="g8_2" />
<path d="M665.7,1017l3.5,0l0,0.5l-2.9,0l0,1.6l2.6,0l0,0.5l-2.6,0l0,1.7l3,0l0,0.5l-3.6,0Z" class="g8_2" />
<path d="M673.4,1019.5c1,0,1.4,-0.5,1.4,-1.1c-0.1,-0.5,-0.3,-0.9,-1.4,-0.9l-1.4,0l0,2Zm-1.9,-2.5l1.9,0c0.7,0,1.2,0.1,1.6,0.5c0.1,0.1,0.3,0.5,0.3,0.9c0,0.8,-0.5,1.3,-1.3,1.5l1.5,2l-0.7,0l-1.4,-1.9l-1.4,0l0,1.9l-0.5,0Z" class="g8_2" />
<path d="M677.6,1017l0.5,0l3.1,3.9l0,-3.9l0.5,0l0,4.9l-0.5,0l-3.1,-4l0,4l-0.5,0Z" class="g8_2" />
<path d="M687.3,1020.1l-1.1,-2.5l-1.1,2.5Zm-1.4,-3.1l0.6,0l2.2,4.9l-0.6,0l-0.6,-1.3l-2.6,0l-0.6,1.3l-0.6,0Z" class="g8_2" />
<path d="M691.4,1017.5l-1.7,0l0,-0.5l3.9,0l0,0.5l-1.7,0l0,4.4l-0.5,0Z" class="g8_2" />
<path d="M695.7,1017l0.6,0l0,4.9l-0.6,0l0,-4.9Z" class="g8_2" />
<path d="M703,1019.4l0,0c0,-1.2,-0.9,-2,-2,-2c-1.2,0,-1.9,1,-1.9,2c0,1.2,0.8,1.8,1.4,2c1.4,0.3,2.5,-0.7,2.5,-2m-4.4,0l0,0c0,-1.3,1,-2.5,2.4,-2.5c1.6,0,2.5,1.2,2.5,2.5c0.1,1.5,-1.3,2.9,-3.1,2.5c-1,-0.3,-1.8,-1.2,-1.8,-2.5Z" class="g8_2" />
<path d="M705.8,1017l0.5,0l3,3.9l0.1,-3.9l0.5,0l0,4.9l-0.5,0l-3.1,-4l0,4l-0.5,0Z" class="g8_2" />
<path d="M715.5,1020.1l-1.1,-2.5l-1.1,2.5Zm-1.4,-3.1l0.6,0l2.2,4.9l-0.6,0l-0.6,-1.3l-2.6,0l-0.6,1.3l-0.6,0Z" class="g8_2" />
<path d="M718.9,1017l0.6,0l0,4.3l2.7,0.1l0,0.5l-3.3,0Z" class="g8_2" />
</svg>